<svg xmlns="http://www.w3.org/2000/svg" width="20" height="20" viewBox="0 0 20 20">
  <g id="add_favourite" transform="translate(-147 -283)">
    <circle id="Ellipse_9" data-name="Ellipse 9" cx="10" cy="10" r="10" transform="translate(147 283)" fill="#fff"/>
    <path id="favourites" d="M7.122,12.342l-.8-.757a36.144,36.144,0,0,1-2.66-2.719A4.279,4.279,0,0,1,2.5,6,2.8,2.8,0,0,1,3.3,3.97a2.672,2.672,0,0,1,1.99-.82,3.038,3.038,0,0,1,1.334.321,3.189,3.189,0,0,1,1.18,1.035,3.187,3.187,0,0,1,1.18-1.035,3.035,3.035,0,0,1,1.333-.321,2.672,2.672,0,0,1,1.99.82A2.8,2.8,0,0,1,13.112,6a4.306,4.306,0,0,1-1.187,2.89A36.888,36.888,0,0,1,9.272,11.6l-.782.728a.95.95,0,0,1-.684.285A.976.976,0,0,1,7.122,12.342ZM7.4,5.377a3.315,3.315,0,0,0-.95-1.042,2.072,2.072,0,0,0-1.159-.328,1.873,1.873,0,0,0-1.4.571A1.959,1.959,0,0,0,3.338,6a2.873,2.873,0,0,0,.433,1.434A9.243,9.243,0,0,0,4.86,8.931q.656.742,1.417,1.448T7.694,11.7a.167.167,0,0,0,.223,0q.656-.614,1.418-1.321t1.417-1.448a9.243,9.243,0,0,0,1.089-1.492A2.873,2.873,0,0,0,12.274,6a1.959,1.959,0,0,0-.559-1.427,1.873,1.873,0,0,0-1.4-.571,2.072,2.072,0,0,0-1.159.328,3.315,3.315,0,0,0-.95,1.042.5.5,0,0,1-.81,0ZM7.806,7.875Z" transform="translate(149.194 285.629)" fill="#7c8ab0"/>
  </g>
</svg>
