<svg xmlns="http://www.w3.org/2000/svg" xmlns:xlink="http://www.w3.org/1999/xlink" width="44" height="41" viewBox="0 0 44 41">
  <defs>
    <linearGradient id="linear-gradient" x1="0.5" x2="0.5" y2="1" gradientUnits="objectBoundingBox">
      <stop offset="0.329" stop-color="#5f3794"/>
      <stop offset="0.689" stop-color="#473392"/>
      <stop offset="1" stop-color="#363091"/>
    </linearGradient>
  </defs>
  <g id="Category_active" transform="translate(-81 -712)">
    <text id="Category" transform="translate(81 750)" fill="#373091" font-size="10" font-family="CeraPro-Medium, Cera Pro" font-weight="500"><tspan x="0" y="0">Category</tspan></text>
    <g id="Group_1087" data-name="Group 1087">
      <path id="Path_162" data-name="Path 162" d="M3.471,0h2.6A3.471,3.471,0,0,1,9.546,3.471v2.6A3.471,3.471,0,0,1,6.075,9.546h-2.6A3.471,3.471,0,0,1,0,6.075v-2.6A3.471,3.471,0,0,1,3.471,0Z" transform="translate(93 712)" fill="url(#linear-gradient)"/>
      <path id="Path_163" data-name="Path 163" d="M280.805,0h2.6a3.471,3.471,0,0,1,3.471,3.471v2.6a3.471,3.471,0,0,1-3.471,3.471h-2.6a3.471,3.471,0,0,1-3.471-3.471v-2.6A3.471,3.471,0,0,1,280.805,0Z" transform="translate(-173.053 712)" fill="url(#linear-gradient)"/>
      <path id="Path_164" data-name="Path 164" d="M3.471,277.333h2.6A3.471,3.471,0,0,1,9.546,280.8v2.6a3.471,3.471,0,0,1-3.471,3.471h-2.6A3.471,3.471,0,0,1,0,283.408v-2.6A3.471,3.471,0,0,1,3.471,277.333Z" transform="translate(93 446.121)" fill="url(#linear-gradient)"/>
      <path id="Path_165" data-name="Path 165" d="M280.805,277.333h2.6a3.471,3.471,0,0,1,3.471,3.471v2.6a3.471,3.471,0,0,1-3.471,3.471h-2.6a3.471,3.471,0,0,1-3.471-3.471v-2.6A3.471,3.471,0,0,1,280.805,277.333Z" transform="translate(-173.053 446.121)" fill="url(#linear-gradient)"/>
    </g>
  </g>
</svg>
