<svg xmlns="http://www.w3.org/2000/svg" width="47" height="38" viewBox="0 0 47 38">
  <g id="Category_active" transform="translate(-85 -716)">
    <text id="Category" transform="translate(85 750)" fill="#7c8ab0" font-size="10" font-family="Poppins-Regular, Poppins"><tspan x="0" y="0">Category</tspan></text>
    <path id="categories" d="M17.616,12.921a1.238,1.238,0,0,1-.367-.055.659.659,0,0,1-.314-.218L12.929,8.643a.858.858,0,0,1-.218-.327,1.114,1.114,0,0,1-.055-.354,1.208,1.208,0,0,1,.055-.381.858.858,0,0,1,.218-.327l4.006-4.006a.9.9,0,0,1,.314-.2,1.032,1.032,0,0,1,.735,0,.9.9,0,0,1,.314.2L22.3,7.253a.994.994,0,0,1,.232.341,1.019,1.019,0,0,1,.068.367.918.918,0,0,1-.068.354,1.045,1.045,0,0,1-.232.327L18.3,12.649a.659.659,0,0,1-.314.218A1.238,1.238,0,0,1,17.616,12.921ZM4.781,11.5a.972.972,0,0,1-.7-.272.935.935,0,0,1-.286-.708V4.855a.975.975,0,0,1,.981-.981h5.668a.935.935,0,0,1,.708.286.972.972,0,0,1,.272.7v5.668a.935.935,0,0,1-.981.981ZM15.027,21.75a.935.935,0,0,1-.708-.286.972.972,0,0,1-.272-.7V15.1a.935.935,0,0,1,.981-.981h5.668a.972.972,0,0,1,.7.272.935.935,0,0,1,.286.708v5.668a.975.975,0,0,1-.981.981Zm-10.246,0a.975.975,0,0,1-.981-.981V15.1a.935.935,0,0,1,.286-.708.972.972,0,0,1,.7-.272h5.668a.935.935,0,0,1,.981.981v5.668a.972.972,0,0,1-.272.7.935.935,0,0,1-.708.286ZM5.435,9.869h4.36V5.509H5.435Zm12.208,1.2,3.079-3.079L17.643,4.91,14.564,7.989Zm-1.962,9.047h4.36v-4.36h-4.36Zm-10.246,0h4.36v-4.36H5.435ZM9.795,9.869ZM14.564,7.989ZM9.795,15.755ZM15.681,15.755Z" transform="translate(95.2 713.025)" fill="#7c8ab0"/>
  </g>
</svg>
