<svg xmlns="http://www.w3.org/2000/svg" xmlns:xlink="http://www.w3.org/1999/xlink" width="44" height="41" viewBox="0 0 44 41">
  <defs>
    <linearGradient id="linear-gradient" x1="0.5" x2="0.5" y2="1" gradientUnits="objectBoundingBox">
      <stop offset="0.329" stop-color="#5f3794"/>
      <stop offset="0.689" stop-color="#473392"/>
      <stop offset="1" stop-color="#363091"/>
    </linearGradient>
  </defs>
  <g id="Category_inactive" transform="translate(-81 -712)">
    <g id="category" transform="translate(93 712)">
      <path id="Path_166" data-name="Path 166" d="M6.065,0h-2.6A3.466,3.466,0,0,0,0,3.466v2.6A3.466,3.466,0,0,0,3.466,9.531h2.6A3.466,3.466,0,0,0,9.531,6.065v-2.6A3.466,3.466,0,0,0,6.065,0ZM7.8,6.065A1.733,1.733,0,0,1,6.065,7.8h-2.6A1.733,1.733,0,0,1,1.733,6.065v-2.6A1.733,1.733,0,0,1,3.466,1.733h2.6A1.733,1.733,0,0,1,7.8,3.466Z" transform="translate(0 0)" fill="url(#linear-gradient)"/>
      <path id="Path_167" data-name="Path 167" d="M19.065,0h-2.6A3.466,3.466,0,0,0,13,3.466v2.6a3.466,3.466,0,0,0,3.466,3.466h2.6a3.466,3.466,0,0,0,3.466-3.466v-2.6A3.466,3.466,0,0,0,19.065,0ZM20.8,6.065A1.733,1.733,0,0,1,19.065,7.8h-2.6a1.733,1.733,0,0,1-1.733-1.733v-2.6a1.733,1.733,0,0,1,1.733-1.733h2.6A1.733,1.733,0,0,1,20.8,3.466Z" transform="translate(-1.703 0)" fill="url(#linear-gradient)"/>
      <path id="Path_168" data-name="Path 168" d="M6.065,13h-2.6A3.466,3.466,0,0,0,0,16.466v2.6a3.466,3.466,0,0,0,3.466,3.466h2.6a3.466,3.466,0,0,0,3.466-3.466v-2.6A3.466,3.466,0,0,0,6.065,13ZM7.8,19.065A1.733,1.733,0,0,1,6.065,20.8h-2.6a1.733,1.733,0,0,1-1.733-1.733v-2.6a1.733,1.733,0,0,1,1.733-1.733h2.6A1.733,1.733,0,0,1,7.8,16.466Z" transform="translate(0 -1.531)" fill="url(#linear-gradient)"/>
      <path id="Path_169" data-name="Path 169" d="M19.065,13h-2.6A3.466,3.466,0,0,0,13,16.466v2.6a3.466,3.466,0,0,0,3.466,3.466h2.6a3.466,3.466,0,0,0,3.466-3.466v-2.6A3.466,3.466,0,0,0,19.065,13ZM20.8,19.065A1.733,1.733,0,0,1,19.065,20.8h-2.6a1.733,1.733,0,0,1-1.733-1.733v-2.6a1.733,1.733,0,0,1,1.733-1.733h2.6A1.733,1.733,0,0,1,20.8,16.466Z" transform="translate(-1.703 -1.531)" fill="url(#linear-gradient)"/>
    </g>
    <text id="Category-2" data-name="Category" transform="translate(81 750)" fill="#373091" font-size="10" font-family="CeraPro-Medium, Cera Pro" font-weight="500"><tspan x="0" y="0">Category</tspan></text>
  </g>
</svg>
