<svg xmlns="http://www.w3.org/2000/svg" width="47" height="39" viewBox="0 0 47 39">
  <g id="Favourite_active" transform="translate(-229 -715)">
    <text id="Favourite" transform="translate(229 750)" fill="#7c8ab0" font-size="10" font-family="Poppins-Regular, Poppins"><tspan x="0" y="0">Favourite</tspan></text>
    <path id="favourites" d="M11.78,21.606l-1.6-1.519a72.568,72.568,0,0,1-5.34-5.46A8.591,8.591,0,0,1,2.5,8.882,5.611,5.611,0,0,1,4.113,4.8,5.364,5.364,0,0,1,8.107,3.15a6.1,6.1,0,0,1,2.678.644,6.4,6.4,0,0,1,2.368,2.078,6.4,6.4,0,0,1,2.37-2.078A6.093,6.093,0,0,1,18.2,3.15,5.364,5.364,0,0,1,22.194,4.8a5.611,5.611,0,0,1,1.613,4.084,8.646,8.646,0,0,1-2.383,5.8A74.062,74.062,0,0,1,16.1,20.115l-1.57,1.462a1.908,1.908,0,0,1-1.374.573A1.96,1.96,0,0,1,11.78,21.606ZM12.34,7.621a6.657,6.657,0,0,0-1.906-2.092,4.159,4.159,0,0,0-2.327-.659A3.761,3.761,0,0,0,5.3,6.016,3.934,3.934,0,0,0,4.182,8.882a5.769,5.769,0,0,0,.869,2.88,18.557,18.557,0,0,0,2.187,3q1.318,1.49,2.845,2.908t2.846,2.651a.336.336,0,0,0,.449,0q1.318-1.232,2.846-2.651t2.845-2.908a18.558,18.558,0,0,0,2.187-3,5.769,5.769,0,0,0,.869-2.88A3.934,3.934,0,0,0,21,6.016a3.761,3.761,0,0,0-2.8-1.146,4.159,4.159,0,0,0-2.327.659,6.657,6.657,0,0,0-1.906,2.092.994.994,0,0,1-1.626,0ZM13.153,12.636Z" transform="translate(238.5 711.85)" fill="#7c8ab0"/>
  </g>
</svg>
