<svg xmlns="http://www.w3.org/2000/svg" xmlns:xlink="http://www.w3.org/1999/xlink" width="44" height="41" viewBox="0 0 44 41">
  <defs>
    <linearGradient id="linear-gradient" x1="0.5" x2="0.5" y2="1" gradientUnits="objectBoundingBox">
      <stop offset="0.329" stop-color="#5f3794"/>
      <stop offset="0.689" stop-color="#473392"/>
      <stop offset="1" stop-color="#363091"/>
    </linearGradient>
  </defs>
  <g id="Favourite_active" transform="translate(-239 -712)">
    <text id="Favourite" transform="translate(239 750)" fill="#373091" font-size="10" font-family="CeraPro-Medium, Cera Pro" font-weight="500"><tspan x="0" y="0">Favourite</tspan></text>
    <path id="favourite_active-2" data-name="favourite_active" d="M16.764,1.917A6.1,6.1,0,0,0,11.5,5.2,6.1,6.1,0,0,0,6.226,1.917,6.67,6.67,0,0,0,0,8.935c0,4.526,4.585,9.47,8.43,12.821a4.628,4.628,0,0,0,6.131,0c3.845-3.352,8.43-8.3,8.43-12.821a6.67,6.67,0,0,0-6.227-7.018Z" transform="translate(249.005 710.083)" fill="url(#linear-gradient)"/>
  </g>
</svg>
