<svg xmlns="http://www.w3.org/2000/svg" xmlns:xlink="http://www.w3.org/1999/xlink" width="44" height="41" viewBox="0 0 44 41">
  <defs>
    <linearGradient id="linear-gradient" x1="0.5" x2="0.5" y2="1" gradientUnits="objectBoundingBox">
      <stop offset="0.329" stop-color="#5f3794"/>
      <stop offset="0.689" stop-color="#473392"/>
      <stop offset="1" stop-color="#363091"/>
    </linearGradient>
  </defs>
  <g id="Favourite_inactive" transform="translate(-239 -712)">
    <path id="favourite" d="M16.575,1.917A6.027,6.027,0,0,0,11.366,5.2,6.027,6.027,0,0,0,6.156,1.917,6.643,6.643,0,0,0,0,8.935c0,4.526,4.533,9.47,8.335,12.821a4.538,4.538,0,0,0,6.062,0c3.8-3.352,8.335-8.3,8.335-12.821a6.643,6.643,0,0,0-6.157-7.018Zm-3.4,18.316a2.712,2.712,0,0,1-3.628,0c-4.867-4.291-7.658-8.409-7.658-11.3A4.7,4.7,0,0,1,6.156,3.908a4.7,4.7,0,0,1,4.262,5.027.948.948,0,1,0,1.894,0,4.7,4.7,0,0,1,4.262-5.027,4.7,4.7,0,0,1,4.262,5.027c0,2.89-2.791,7.007-7.658,11.294Z" transform="translate(249.005 710.083)" fill="url(#linear-gradient)"/>
    <text id="Favourite-2" data-name="Favourite" transform="translate(239 750)" fill="#373091" font-size="10" font-family="CeraPro-Medium, Cera Pro" font-weight="500"><tspan x="0" y="0">Favourite</tspan></text>
  </g>
</svg>
