<svg xmlns="http://www.w3.org/2000/svg" xmlns:xlink="http://www.w3.org/1999/xlink" width="28" height="40.783" viewBox="0 0 28 40.783">
  <defs>
    <linearGradient id="linear-gradient" x1="0.5" x2="0.5" y2="1" gradientUnits="objectBoundingBox">
      <stop offset="0.329" stop-color="#5f3794"/>
      <stop offset="0.689" stop-color="#473392"/>
      <stop offset="1" stop-color="#363091"/>
    </linearGradient>
  </defs>
  <g id="Home_inactive_" data-name="Home_inactive " transform="translate(-16 -712.217)">
    <text id="Home" transform="translate(16 750)" fill="#373091" font-size="10" font-family="CeraPro-Medium, Cera Pro" font-weight="500"><tspan x="0" y="0">Home</tspan></text>
    <path id="home-2" data-name="home" d="M20.034,7.861,13.462,1.288a4.339,4.339,0,0,0-6.128,0L.762,7.861A2.58,2.58,0,0,0,0,9.7v8.506a2.6,2.6,0,0,0,2.6,2.6H18.2a2.6,2.6,0,0,0,2.6-2.6V9.7A2.58,2.58,0,0,0,20.034,7.861ZM13,19.072H7.8V15.663a2.6,2.6,0,0,1,5.2,0Zm6.065-.866a.866.866,0,0,1-.866.866H14.73V15.663a4.332,4.332,0,0,0-8.665,0v3.409H2.6a.866.866,0,0,1-.866-.866V9.7a.873.873,0,0,1,.254-.613L8.559,2.516a2.606,2.606,0,0,1,3.677,0l6.572,6.573a.873.873,0,0,1,.254.61Z" transform="translate(20 712.195)" fill="url(#linear-gradient)"/>
  </g>
</svg>
