<svg xmlns="http://www.w3.org/2000/svg" width="42.69" height="42.694" viewBox="0 0 42.69 42.694">
  <g id="Indelivery" transform="translate(-62 -31)">
    <g id="Group_264" data-name="Group 264" transform="translate(63.767 32.31)">
      <g id="Group_197" data-name="Group 197" transform="translate(-1.767 -1.31)">
        <g id="Group_198" data-name="Group 198" transform="translate(0)">
          <ellipse id="Ellipse_31" data-name="Ellipse 31" cx="21.345" cy="21.347" rx="21.345" ry="21.347" fill="#fe7976"/>
        </g>
      </g>
    </g>
    <path id="indelivery-2" data-name="indelivery" d="M5.6,18.85a2.476,2.476,0,0,1-2.5-2.5,1.448,1.448,0,0,1-.85-.525,1.49,1.49,0,0,1-.35-.975V6.8A1.454,1.454,0,0,1,3.4,5.3H14.9a1.494,1.494,0,0,1,1.5,1.5v2h1.725a.717.717,0,0,1,.325.075.862.862,0,0,1,.275.225l3.225,4.35a.737.737,0,0,1,.15.45v1.7a.727.727,0,0,1-.75.75H20.6a2.5,2.5,0,1,1-5,0H8.1a2.476,2.476,0,0,1-2.5,2.5Zm.025-.7a1.687,1.687,0,0,0,1.25-.538A1.776,1.776,0,0,0,7.4,16.325,1.793,1.793,0,0,0,5.625,14.55a1.776,1.776,0,0,0-1.287.525,1.687,1.687,0,0,0-.538,1.25A1.837,1.837,0,0,0,5.625,18.15ZM2.6,6.8v8.05a.831.831,0,0,0,.05.287.911.911,0,0,0,.125.238.752.752,0,0,0,.188.175.653.653,0,0,0,.237.1,2.147,2.147,0,0,1,.838-1.263A2.469,2.469,0,0,1,5.6,13.85a2.543,2.543,0,0,1,1.538.525A2.073,2.073,0,0,1,8,15.65h7.7V6.8a.77.77,0,0,0-.8-.8H3.4a.77.77,0,0,0-.8.8ZM18.125,18.15a1.687,1.687,0,0,0,1.25-.538,1.776,1.776,0,0,0,.525-1.287,1.793,1.793,0,0,0-1.775-1.775,1.779,1.779,0,0,0-1.288.525,1.688,1.688,0,0,0-.537,1.25,1.835,1.835,0,0,0,1.825,1.825ZM16.4,13.65h4.85L18.1,9.5H16.4ZM9.15,10.825Z" transform="translate(71.1 40.7)" fill="#fff"/>
  </g>
</svg>
