<?xml version="1.0" encoding="utf-8"?>
<!-- Generator: Adobe Illustrator 16.0.0, SVG Export Plug-In . SVG Version: 6.00 Build 0)  -->
<!DOCTYPE svg PUBLIC "-//W3C//DTD SVG 1.1//EN" "http://www.w3.org/Graphics/SVG/1.1/DTD/svg11.dtd">
<svg version="1.1" id="Layer_1" xmlns="http://www.w3.org/2000/svg" xmlns:xlink="http://www.w3.org/1999/xlink" x="0px" y="0px"
	 width="37px" height="41px" viewBox="0 0 37 41" enable-background="new 0 0 37 41" xml:space="preserve">
<g id="MyCart_inactive" transform="translate(-162 -712)">
	<g id="my_cart" transform="translate(170 712)">
		
			<linearGradient id="Path_174_1_" gradientUnits="userSpaceOnUse" x1="-514.7246" y1="538.5029" x2="-514.7246" y2="537.5029" gradientTransform="matrix(20.8355 0 0 -16.6681 10735.002 8975.8154)">
			<stop  offset="0.329" style="stop-color:#5F3794"/>
			<stop  offset="0.689" style="stop-color:#473392"/>
			<stop  offset="1" style="stop-color:#363091"/>
		</linearGradient>
		<path id="Path_174" fill="url(#Path_174_1_)" d="M20.213,3.576c-0.511-0.602-1.261-0.947-2.05-0.945H3.775L3.738,2.323
			C3.569,0.99,2.431-0.008,1.087,0H0.89C0.402-0.003,0.004,0.389,0,0.877c0.004,0.488,0.402,0.88,0.89,0.877h0.2
			c0.448-0.003,0.828,0.33,0.884,0.774L3.2,12.793c0.28,2.224,2.177,3.888,4.419,3.875h9.294c0.484,0,0.877-0.392,0.878-0.876
			c0-0.484-0.393-0.877-0.877-0.877h-0.001H7.615c-1.123,0.001-2.126-0.7-2.51-1.754h10.609c2.14,0.011,3.981-1.508,4.379-3.61
			l0.7-3.819c0.141-0.768-0.071-1.559-0.578-2.154L20.213,3.576z M19.045,5.42l-0.699,3.819c-0.241,1.261-1.348,2.169-2.632,2.161
			H4.823L3.985,4.386h14.179c0.264-0.001,0.515,0.113,0.688,0.313C19.021,4.898,19.092,5.163,19.045,5.42z"/>
		
			<linearGradient id="Ellipse_53_1_" gradientUnits="userSpaceOnUse" x1="-445.6963" y1="452.8057" x2="-445.6963" y2="451.8057" gradientTransform="matrix(3.466 0 0 -3.466 1550.9888 1586.9612)">
			<stop  offset="0.329" style="stop-color:#5F3794"/>
			<stop  offset="0.689" style="stop-color:#473392"/>
			<stop  offset="1" style="stop-color:#363091"/>
		</linearGradient>
		<ellipse id="Ellipse_53" fill="url(#Ellipse_53_1_)" cx="6.207" cy="19.267" rx="1.733" ry="1.733"/>
		
			<linearGradient id="Ellipse_54_1_" gradientUnits="userSpaceOnUse" x1="-445.6958" y1="452.8057" x2="-445.6958" y2="451.8057" gradientTransform="matrix(3.466 0 0 -3.466 1559.936 1586.9612)">
			<stop  offset="0.329" style="stop-color:#5F3794"/>
			<stop  offset="0.689" style="stop-color:#473392"/>
			<stop  offset="1" style="stop-color:#363091"/>
		</linearGradient>
		<ellipse id="Ellipse_54" fill="url(#Ellipse_54_1_)" cx="15.154" cy="19.267" rx="1.733" ry="1.733"/>
	</g>
	<text transform="matrix(1 0 0 1 162 750)" fill="#373091" font-family="'CeraPro-Medium'" font-size="10">My Cart</text>
</g>
<circle fill="#FF0D0D" cx="26.704" cy="3.991" r="3.99"/>
</svg>
