<svg xmlns="http://www.w3.org/2000/svg" width="39" height="38" viewBox="0 0 39 38">
  <g id="Mycart__inactive" transform="translate(-161 -716)">
    <text id="My_Cart" data-name="My Cart" transform="translate(161 750)" fill="#b8bac5" font-size="10" font-family="Poppins-Regular, Poppins"><tspan x="0" y="0">My Cart</tspan></text>
    <path id="mycart" d="M7.16,21.25a1.7,1.7,0,0,1-1.239-.5,1.7,1.7,0,0,1,0-2.438,1.775,1.775,0,0,1,2.478,0,1.7,1.7,0,0,1,0,2.438,1.7,1.7,0,0,1-1.239.5Zm9.717,0a1.7,1.7,0,0,1-1.239-.5,1.7,1.7,0,0,1,0-2.438,1.775,1.775,0,0,1,2.478,0,1.7,1.7,0,0,1,0,2.438A1.7,1.7,0,0,1,16.876,21.25ZM6.033,5.7l2.529,5.218h7.012l2.78-4.947a.182.182,0,0,0,0-.184A.163.163,0,0,0,18.2,5.7ZM7.16,16.328a1.634,1.634,0,0,1-1.5-.849,1.579,1.579,0,0,1-.025-1.686L7.06,11.258,3.4,3.727H2.226A.721.721,0,0,1,1.5,2.988a.713.713,0,0,1,.212-.53.739.739,0,0,1,.539-.209H3.779a.912.912,0,0,1,.476.135.924.924,0,0,1,.351.382l.7,1.452h13.9a1.034,1.034,0,0,1,.977,1.575L16.952,11.5a1.635,1.635,0,0,1-.626.652,1.753,1.753,0,0,1-.9.234H8.111L6.959,14.482a.237.237,0,0,0-.012.246.219.219,0,0,0,.212.123H17.9a.688.688,0,0,1,.514.222.723.723,0,0,1,.212.517.71.71,0,0,1-.212.529.737.737,0,0,1-.539.21Zm1.4-5.415h0Z" transform="translate(169.5 713.75)" fill="#b8bac5"/>
  </g>
</svg>
