<svg xmlns="http://www.w3.org/2000/svg" xmlns:xlink="http://www.w3.org/1999/xlink" width="37" height="41" viewBox="0 0 37 41">
  <defs>
    <linearGradient id="linear-gradient" x1="0.5" x2="0.5" y2="1" gradientUnits="objectBoundingBox">
      <stop offset="0.329" stop-color="#5f3794"/>
      <stop offset="0.689" stop-color="#473392"/>
      <stop offset="1" stop-color="#363091"/>
    </linearGradient>
  </defs>
  <g id="MyCart_active" transform="translate(-162 -712)">
    <text id="My_Cart" data-name="My Cart" transform="translate(162 750)" fill="#373091" font-size="10" font-family="CeraPro-Medium, Cera Pro" font-weight="500"><tspan x="0" y="0">My Cart</tspan></text>
    <g id="my_cart_active" transform="translate(170 712)">
      <path id="Path_173" data-name="Path 173" d="M20.374,3.626a2.694,2.694,0,0,0-2.066-.958H3.805l-.038-.312A2.683,2.683,0,0,0,1.1,0H.9a.889.889,0,1,0,0,1.779h.2a.894.894,0,0,1,.891.785L3.221,12.969A4.472,4.472,0,0,0,7.676,16.9h9.367a.889.889,0,1,0,0-1.779H7.676a2.69,2.69,0,0,1-2.53-1.779H15.839a4.475,4.475,0,0,0,4.414-3.658l.7-3.872a2.646,2.646,0,0,0-.583-2.184Z" fill="url(#linear-gradient)"/>
      <ellipse id="Ellipse_51" data-name="Ellipse 51" cx="1.641" cy="1.641" rx="1.641" ry="1.641" transform="translate(4.564 17.718)" fill="url(#linear-gradient)"/>
      <ellipse id="Ellipse_52" data-name="Ellipse 52" cx="1.641" cy="1.641" rx="1.641" ry="1.641" transform="translate(13.691 17.718)" fill="url(#linear-gradient)"/>
    </g>
  </g>
</svg>
