<svg xmlns="http://www.w3.org/2000/svg" width="42.69" height="42.694" viewBox="0 0 42.69 42.694">
  <g id="Packed" transform="translate(-10 -31)">
    <g id="Group_4171" data-name="Group 4171" transform="translate(10 31)">
      <g id="Group_197" data-name="Group 197" transform="translate(0 0)">
        <g id="Group_198" data-name="Group 198" transform="translate(0)">
          <ellipse id="Ellipse_31" data-name="Ellipse 31" cx="21.345" cy="21.347" rx="21.345" ry="21.347" fill="#5dd8b4"/>
        </g>
      </g>
    </g>
    <path id="packed-2" data-name="packed" d="M10.5,11.041l1.631-.815a1.155,1.155,0,0,1,1.087,0l1.631.815V5.061H10.5ZM7.616,17.4a.381.381,0,1,1,0-.761h4.675a.381.381,0,1,1,0,.761ZM5.931,21.044A1.581,1.581,0,0,1,4.3,19.413V5.931A1.581,1.581,0,0,1,5.931,4.3H19.413a1.581,1.581,0,0,1,1.631,1.631V19.413a1.581,1.581,0,0,1-1.631,1.631ZM5.061,5.061v0Zm.87,15.222H19.413a.935.935,0,0,0,.87-.87V5.931a.935.935,0,0,0-.87-.87H15.608v6.578a.385.385,0,0,1-.19.34.389.389,0,0,1-.408.013l-2.338-1.169-2.338,1.169a.389.389,0,0,1-.408-.013.385.385,0,0,1-.19-.34V5.061H5.931a.935.935,0,0,0-.87.87V19.413a.935.935,0,0,0,.87.87Z" transform="translate(18.7 40.027)" fill="#fff"/>
  </g>
</svg>
