<svg xmlns="http://www.w3.org/2000/svg" xmlns:xlink="http://www.w3.org/1999/xlink" width="30" height="41" viewBox="0 0 30 41">
  <defs>
    <linearGradient id="linear-gradient" x1="0.5" x2="0.5" y2="1" gradientUnits="objectBoundingBox">
      <stop offset="0.329" stop-color="#5f3794"/>
      <stop offset="0.689" stop-color="#473392"/>
      <stop offset="1" stop-color="#363091"/>
    </linearGradient>
  </defs>
  <g id="Profile_inactive" transform="translate(-314 -712)">
    <g id="profile" transform="translate(320 712)">
      <path id="Path_186" data-name="Path 186" d="M12.934,12.676a4.886,4.886,0,0,0,4.934-4.838A4.934,4.934,0,0,0,8,7.838,4.886,4.886,0,0,0,12.934,12.676Zm0-7.257a2.419,2.419,0,1,1-2.467,2.419A2.443,2.443,0,0,1,12.934,5.419Z" transform="translate(-4.371 -3)" fill="url(#linear-gradient)"/>
      <path id="Path_187" data-name="Path 187" d="M20.9,21.466a1.216,1.216,0,0,0,1.223-1.209A7.305,7.305,0,0,0,14.785,13H12.339A7.305,7.305,0,0,0,5,20.257a1.223,1.223,0,0,0,2.446,0,4.865,4.865,0,0,1,4.893-4.838h2.446a4.865,4.865,0,0,1,4.893,4.838A1.216,1.216,0,0,0,20.9,21.466Z" transform="translate(-5 -0.466)" fill="url(#linear-gradient)"/>
    </g>
    <text id="Profile-2" data-name="Profile" transform="translate(314 750)" fill="#373091" font-size="10" font-family="CeraPro-Medium, Cera Pro" font-weight="500"><tspan x="0" y="0">Profile</tspan></text>
  </g>
</svg>
