<svg xmlns="http://www.w3.org/2000/svg" width="31" height="39" viewBox="0 0 31 39">
  <g id="Profil_active" transform="translate(-309 -715)">
    <text id="Profile" transform="translate(309 750)" fill="#7c8ab0" font-size="10" font-family="Poppins-Regular, Poppins"><tspan x="0" y="0">Profile</tspan></text>
    <path id="profile-2" data-name="profile" d="M14.466,14a4.453,4.453,0,0,1-3.289-1.379A4.5,4.5,0,0,1,9.815,9.351a4.481,4.481,0,0,1,1.362-3.289,4.652,4.652,0,0,1,6.577,0,4.481,4.481,0,0,1,1.362,3.289,4.5,4.5,0,0,1-1.362,3.271A4.453,4.453,0,0,1,14.466,14Zm7.94,10.1H6.526a1.961,1.961,0,0,1-1.444-.581A1.923,1.923,0,0,1,4.5,22.107v-.963a3.266,3.266,0,0,1,.532-1.794,3.667,3.667,0,0,1,1.428-1.3,19.079,19.079,0,0,1,3.97-1.446,17.174,17.174,0,0,1,8.072,0,19.086,19.086,0,0,1,3.969,1.446,3.667,3.667,0,0,1,1.428,1.3,3.266,3.266,0,0,1,.532,1.794v.963a1.923,1.923,0,0,1-.582,1.413,1.961,1.961,0,0,1-1.444.581ZM6.493,22.107H22.439v-.963a1.247,1.247,0,0,0-.233-.731,1.959,1.959,0,0,0-.631-.565,18.594,18.594,0,0,0-3.5-1.28,14.735,14.735,0,0,0-7.21,0,18.594,18.594,0,0,0-3.5,1.28,1.959,1.959,0,0,0-.631.565,1.247,1.247,0,0,0-.233.731Zm7.973-10.1a2.665,2.665,0,0,0,2.658-2.658A2.654,2.654,0,0,0,12.59,7.473a2.645,2.645,0,0,0,0,3.754,2.556,2.556,0,0,0,1.876.781ZM14.466,9.351ZM14.466,22.107Z" transform="translate(309.5 710.3)" fill="#7c8ab0"/>
  </g>
</svg>
