<svg xmlns="http://www.w3.org/2000/svg" width="17.6" height="44" viewBox="0 0 17.6 44">
  <path id="RunExperiment_icon" d="M27.6,2.467V1H24.667V2.467a10.326,10.326,0,0,1-.117,1.467h-11.5a10.325,10.325,0,0,1-.117-1.467V1H10V2.467c0,5.507,2.889,8.219,6.013,10.267C12.889,14.781,10,17.493,10,23s2.889,8.219,6.013,10.267C12.889,35.314,10,38.026,10,43.533V45h2.933V43.533a10.326,10.326,0,0,1,.117-1.467h11.5a10.326,10.326,0,0,1,.117,1.467V45H27.6V43.533c0-5.507-2.889-8.219-6.013-10.267C24.711,31.219,27.6,28.507,27.6,23s-2.889-8.219-6.013-10.267C24.711,10.686,27.6,7.974,27.6,2.467ZM24.667,23a10.325,10.325,0,0,1-.117,1.467h-11.5a9.271,9.271,0,0,1,0-2.933h11.5A10.326,10.326,0,0,1,24.667,23ZM23.558,39.133H14.042A13.065,13.065,0,0,1,18.8,34.983a13.065,13.065,0,0,1,4.758,4.151ZM18.8,31.551A13.065,13.065,0,0,1,14.042,27.4h9.516A13.065,13.065,0,0,1,18.8,31.551ZM23.558,18.6H14.042A13.065,13.065,0,0,1,18.8,14.449,13.065,13.065,0,0,1,23.558,18.6ZM18.8,11.017a13.065,13.065,0,0,1-4.758-4.151h9.516A13.065,13.065,0,0,1,18.8,11.017Z" transform="translate(-10 -1)" fill="#fff"/>
</svg>
