<svg xmlns="http://www.w3.org/2000/svg" width="43.394" height="43.394" viewBox="0 0 43.394 43.394">
  <path id="uvlamp_icon" d="M19.048,45.394h-6.2a3.1,3.1,0,0,1-3.1-3.1V29.9h3.1v12.4h6.2V29.9h3.1v12.4a3.1,3.1,0,0,1-3.1,3.1Zm18.6-15.5H34.933l-3.487,14-3.422-14H25.247l3.874,15.5h4.649ZM22.147,2h3.1V9.749h-3.1ZM32.512,12.694,37.946,7.26l2.191,2.191L34.7,14.885Zm5.133,9.454h7.749v3.1H37.645ZM2,22.147H9.749v3.1H2Zm5.262-12.7L9.453,7.26l5.434,5.434-2.193,2.191ZM33,25.247H29.9V23.7a6.2,6.2,0,1,0-12.4,0v1.55H14.4V23.7a9.3,9.3,0,0,1,18.6,0Z" transform="translate(-2 -2)" fill="#8d94b0"/>
</svg>
