<svg xmlns="http://www.w3.org/2000/svg" width="28" height="28" viewBox="0 0 28 28">
  <g id="AddressInfo" transform="translate(-28 -385)">
    <circle id="Ellipse_52" data-name="Ellipse 52" cx="14" cy="14" r="14" transform="translate(28 385)" fill="#7c8ab0" opacity="0.15"/>
    <path id="address" d="M10.814,14.188a16.142,16.142,0,0,0,3.235-3.272,5.3,5.3,0,0,0,1.092-3A4.418,4.418,0,0,0,14.7,5.85a4.159,4.159,0,0,0-2.5-2.133,4.725,4.725,0,0,0-1.381-.235,4.725,4.725,0,0,0-1.381.235,4.17,4.17,0,0,0-2.5,2.133,4.425,4.425,0,0,0-.443,2.062,5.3,5.3,0,0,0,1.092,3A16.141,16.141,0,0,0,10.814,14.188Zm0,1.292a1.125,1.125,0,0,1-.309-.041.73.73,0,0,1-.268-.144,17.1,17.1,0,0,1-3.75-3.785,6.44,6.44,0,0,1-1.236-3.6,5.528,5.528,0,0,1,1.8-4.226A5.325,5.325,0,0,1,8.846,2.609a5.568,5.568,0,0,1,3.936,0,5.327,5.327,0,0,1,1.792,1.077,5.521,5.521,0,0,1,1.8,4.226,6.44,6.44,0,0,1-1.236,3.6,17.1,17.1,0,0,1-3.75,3.785.561.561,0,0,1-.257.144,1.244,1.244,0,0,1-.32.041Zm0-6.256a1.435,1.435,0,0,0,1.02-2.452A1.44,1.44,0,1,0,9.793,8.8,1.4,1.4,0,0,0,10.814,9.224ZM5.868,18.25a.616.616,0,1,1,0-1.231h9.891a.616.616,0,1,1,0,1.231ZM10.814,7.912Z" transform="translate(30.75 388.736)" fill="#7c8ab0"/>
  </g>
</svg>
