<svg xmlns="http://www.w3.org/2000/svg" width="18" height="18" viewBox="0 0 18 18">
  <g id="address_icon" transform="translate(-2 -2)">
    <circle id="Ellipse_98" data-name="Ellipse 98" cx="4" cy="4" r="4" transform="translate(7 7)"/>
    <path id="Path_2847" data-name="Path 2847" d="M11.9,3.862V2H10.1V3.862A7.209,7.209,0,0,0,3.862,10.1H2v1.8H3.862A7.207,7.207,0,0,0,10.1,18.138V20h1.8V18.138A7.206,7.206,0,0,0,18.138,11.9H20V10.1H18.138A7.207,7.207,0,0,0,11.9,3.862ZM11,16.4A5.4,5.4,0,1,1,16.4,11,5.405,5.405,0,0,1,11,16.4Z"/>
  </g>
</svg>
