<?xml version="1.0" encoding="utf-8"?>
<!-- Generator: Adobe Illustrator 16.0.0, SVG Export Plug-In . SVG Version: 6.00 Build 0)  -->
<!DOCTYPE svg PUBLIC "-//W3C//DTD SVG 1.1//EN" "http://www.w3.org/Graphics/SVG/1.1/DTD/svg11.dtd">
<svg version="1.1" id="Layer_1" xmlns:svgjs="http://svgjs.com/svgjs"
	 xmlns="http://www.w3.org/2000/svg" xmlns:xlink="http://www.w3.org/1999/xlink" x="0px" y="0px" width="512px" height="512px"
	 viewBox="0 0 512 512" enable-background="new 0 0 512 512" xml:space="preserve">
<g>
	<g>
		<path fill="#FDCB02" d="M240.999,0.429C182.962,3.76,128.57,26.388,85.28,65.224c-3.507,3.146,3.058,16.399-0.299,19.757
			c-3.747,3.747-17.364-2.41-20.848,1.523C25.964,129.593,3.729,183.507,0.429,240.999C0.144,245.974,10,250.976,10,256
			c0,5.023-9.856,10.025-9.571,15.001C3.744,328.766,26.176,382.92,64.678,426.11c3.316,3.719,13.489,8.389,13.489,8.389
			s4.006,9.509,7.727,12.825c43.19,38.5,97.342,60.93,155.105,64.245c4.975,0.286,15.001-5.829,15.001-5.829l10.001-240.1
			L256.172,4.567C256.172,4.567,245.974,0.144,240.999,0.429z"/>
		<path fill="#FDAE02" d="M256.001,9.795v439.948c0,0,10.024,62.114,15,61.828c57.973-3.327,112.309-25.909,155.576-64.666
			c3.557-3.187-2.961-16.482,0.442-19.886c3.702-3.701,17.276,2.505,20.721-1.379c38.246-43.113,60.526-97.082,63.831-154.639
			C511.856,266.025,492,261.023,492,256c0-5.024,19.855-10.026,19.571-15.001c-3.315-57.765-25.747-111.919-64.249-155.109
			c-3.315-3.719-15.073-6.39-15.073-6.39s-2.421-11.508-6.142-14.825C382.916,26.177,328.763,3.758,271,0.444
			C266.561,0.189,256.001,9.795,256.001,9.795z"/>
	</g>
	<path fill="#FDAE02" d="M145.927,124.714l-60.638-59.48c-3.508,3.146-6.95,6.389-10.308,9.747
		c-3.748,3.748-7.349,7.602-10.833,11.536l60.567,59.41L145.927,124.714z"/>
	<g>
		<path fill="#FDAE02" d="M241,426.667v84.887c4.976,0.286,9.975,0.447,15,0.447h0.001l10-33.734l-10-51.6H241z"/>
		<path fill="#FD8C02" d="M271,426.667h-14.999V512c5.024,0,10.022-0.161,14.999-0.447V426.667z"/>
	</g>
	<g>
		<path fill="#FDAE02" d="M241,0.447v84.887h15.001l10-48.382L256.001,0C256.001,0,245.976,0.161,241,0.447z"/>
		<path fill="#FD8C02" d="M271,0.447C266.023,0.161,261.025,0,256.001,0v85.334H271V0.447z"/>
	</g>
	<path fill="#FD8C02" d="M366.073,387.286l60.494,59.607c3.558-3.187,7.049-6.471,10.452-9.875
		c3.702-3.701,7.262-7.508,10.706-11.392l-60.438-59.554L366.073,387.286z"/>
	<path fill="#FD8C02" d="M426.667,271h84.886c0.286-4.977,0.447-9.975,0.447-15c0-5.025-0.161-10.024-0.447-15h-84.886V271z"/>
	<path fill="#FDAE02" d="M85.334,241H0.447C0.161,245.976,0,250.975,0,256c0,5.025,0.161,10.023,0.447,15h84.887V241z"/>
	<path fill="#FD8C02" d="M387.286,145.927l60.022-60.024c-3.315-3.72-6.736-7.369-10.291-10.923
		c-3.553-3.553-7.201-6.974-10.923-10.291l-60.022,60.023L387.286,145.927z"/>
	<path fill="#FDAE02" d="M124.714,366.073L64.69,426.097c3.316,3.721,6.737,7.369,10.291,10.923
		c3.553,3.554,7.202,6.975,10.923,10.291l60.024-60.023L124.714,366.073z"/>
	<g>
		<path fill="#FFDA88" d="M256,70.334C153.623,70.334,70.334,153.623,70.334,256S153.623,441.667,256,441.667h0.001l10-176.97
			L256,70.334L256,70.334z"/>
		<path fill="#FFDA88" d="M441.667,256c0-102.377-83.29-185.666-185.666-185.667v371.333
			C358.377,441.666,441.667,358.377,441.667,256z"/>
	</g>
</g>
<g>
	<path fill="#FDAE02" d="M714.001,226.686v42.667h15l10-19.974l-10-22.694H714.001z"/>
	<path fill="#FD8C02" d="M729.001,226.686h15v42.667h-15V226.686z"/>
	<path fill="#FDAE02" d="M691.432,441.314l4.758-139.98c-16.506-16.627-42.34-20.327-63.162-8.104
		c-23.596,13.85-32.436,43.838-20.123,68.272l40.217,79.812H691.432z"/>
	<path fill="#FD8C02" d="M824.974,293.23c-20.823-12.223-46.657-8.522-63.161,8.104l5.845,139.98h37.222l40.218-79.812
		C857.409,337.068,848.57,307.08,824.974,293.23L824.974,293.23z"/>
	<path fill="#FDCB02" d="M691.432,441.314h37.892L739,350.02l-10-95.667c-17.707,0-34.389,7.78-45.77,21.346
		c-11.379,13.564-16.141,31.346-13.049,48.859L691.432,441.314z"/>
	<path fill="#FDAE02" d="M767.657,441.314l20.175-116.834c3.078-17.437-1.683-35.217-13.064-48.782
		c-11.379-13.565-28.061-21.345-45.768-21.345v186.961H767.657L767.657,441.314z"/>
</g>
<path fill="#FCC742" d="M297.689,378.366c-2.994,2.983-7.848,2.997-10.834,0c-17.523-17.48-25.928-37.775-25.711-62.032
	c0.137-16.225,4.094-32.704,8.768-48.897c-15.895,4.647-33.045,8.861-49.965,8.872c-23.786,0.005-43.737-8.371-61.009-25.606
	c-3-2.987-2.998-7.834-0.016-10.833c2.995-2.991,7.846-3,10.834-0.004c31.833,31.764,69.179,21.055,105.419,10.002
	c4.568-15.107,8.828-29.886,10.363-44.168l-35.907,35.984c-2.994,2.989-7.843,2.998-10.831,0.005
	c-2.992-2.982-2.998-7.833-0.014-10.833l46.635-46.706c-0.9-6.428-2.652-12.714-5.535-18.858l-74.937,75.079
	c-2.983,2.991-7.833,2.999-10.821,0.015c-3.001-2.995-2.997-7.842-0.016-10.832l77.488-77.643c-1.971-2.504-4.178-4.985-6.631-7.441
	c-2.998-2.984-2.998-7.834-0.016-10.834c2.986-2.989,7.836-2.997,10.834-0.002c17.521,17.483,25.93,37.775,25.711,62.043
	c-0.184,20.803-6.623,42.024-12.852,62.55c-3.42,11.271-6.789,22.354-9.102,33.196l-0.15,0.151c0,0-4.766,17.087-1.996,36.649
	l-0.107,0.111c0.473,3.271,1.188,6.506,2.15,9.709c0.02,0.054,0.027,0.106,0.035,0.146c2.521,8.92,6.951,17.849,14.381,25.483
	c0.492,0.504,0.986,0.984,1.494,1.447c0.734,0.804,1.512,1.606,2.32,2.412C300.664,370.514,300.672,375.361,297.689,378.366z"/>
</svg>
