<svg xmlns="http://www.w3.org/2000/svg" width="60" height="60" viewBox="0 0 60 60">
  <g id="delivered" transform="translate(-4068 -1724)">
    <circle id="Ellipse_58" data-name="Ellipse 58" cx="30" cy="30" r="30" transform="translate(4068 1724)" fill="#2eca6b" opacity="0.1"/>
    <g id="order_delivered" transform="translate(4086 1742)">
      <g id="_31-Delivered" data-name="31-Delivered" transform="translate(2 2)">
        <path id="Path_202" data-name="Path 202" d="M22.633,19.213l-2.424,2.431-.95-.958a.74.74,0,0,0-1.046,1.046l1.473,1.473a.737.737,0,0,0,1.046,0l2.947-2.947a.74.74,0,0,0-1.046-1.046Z" transform="translate(-6.212 -6.475)" fill="#2eca6b" stroke="#2eca6b" stroke-width="0.5"/>
        <path id="Path_203" data-name="Path 203" d="M19.894,14a5.894,5.894,0,1,0,5.894,5.894A5.894,5.894,0,0,0,19.894,14Zm0,10.314a4.42,4.42,0,1,1,4.42-4.42A4.42,4.42,0,0,1,19.894,24.314Z" transform="translate(-5.16 -5.16)" fill="#2eca6b" stroke="#2eca6b" stroke-width="0.5"/>
        <path id="Path_204" data-name="Path 204" d="M19.681,2H4.947A2.947,2.947,0,0,0,2,4.947V19.681a2.947,2.947,0,0,0,2.947,2.947H10.84a.737.737,0,1,0,0-1.473H4.947a1.473,1.473,0,0,1-1.473-1.473V4.947A1.473,1.473,0,0,1,4.947,3.473H8.63V8.63a.741.741,0,0,0,1.26.523l.95-.958.95.958a.737.737,0,0,0,1.046,0l.95-.958.95.958a.737.737,0,0,0,.523.214.619.619,0,0,0,.28-.059A.737.737,0,0,0,16,8.63V3.473h3.684a1.473,1.473,0,0,1,1.473,1.473V10.84a.737.737,0,1,0,1.473,0V4.947A2.947,2.947,0,0,0,19.681,2ZM14.524,6.855l-.214-.221a.737.737,0,0,0-1.046,0l-.95.958-.95-.958a.737.737,0,0,0-1.046,0l-.214.221V3.473h4.42Z" transform="translate(-2 -2)" fill="#2eca6b" stroke="#2eca6b" stroke-width="0.5"/>
      </g>
    </g>
  </g>
</svg>
