<svg xmlns="http://www.w3.org/2000/svg" width="20" height="20" viewBox="0 0 20 20">
  <g id="Edit" transform="translate(-309 -104)">
    <circle id="Ellipse_58" data-name="Ellipse 58" cx="10" cy="10" r="10" transform="translate(309 104)" fill="#f2f3f7"/>
    <path id="edit-2" data-name="edit" d="M4.489,12.206h.7L10.365,7.03l-.685-.7-5.19,5.19Zm7.666-5.791L10.267,4.54l.741-.727a.862.862,0,0,1,1.189,0l.685.685a.893.893,0,0,1,.252.594.725.725,0,0,1-.238.581Zm-8,6.631a.5.5,0,0,1-.5-.5V11.367a.516.516,0,0,1,.035-.189A.5.5,0,0,1,3.8,11L9.665,5.142,11.554,7.03,5.692,12.892a.512.512,0,0,1-.175.119.528.528,0,0,1-.189.035Zm5.861-6.365-.336-.35.685.7Z" transform="translate(310.607 105.69)" fill="#7c8ab0"/>
  </g>
</svg>
