<svg xmlns="http://www.w3.org/2000/svg" width="144.129" height="121.314" viewBox="0 0 144.129 121.314">
  <g id="emptyheart" transform="translate(-31.218 -42.058)">
    <path id="Path_300" data-name="Path 300" d="M60.858,111.314A16.249,16.249,0,1,1,77.11,95.067,16.267,16.267,0,0,1,60.858,111.314Z" transform="translate(18.968 52.058)" fill="#dbdce1"/>
    <path id="Path_301" data-name="Path 301" d="M91.05,111.314A16.249,16.249,0,1,1,107.3,95.067,16.268,16.268,0,0,1,91.05,111.314Z" transform="translate(61.725 52.058)" fill="#dbdce1"/>
    <path id="Path_302" data-name="Path 302" d="M125.75,105.584H56.42A6.123,6.123,0,0,1,50.59,97.6l9.31-22.88a2.506,2.506,0,1,1,4.642,1.892L55.3,99.307a1.156,1.156,0,0,0,.225.814,1.114,1.114,0,0,0,.9.454h69.33a2.5,2.5,0,1,1,0,5.009Z" transform="translate(27.025 44.044)" fill="#dbdce1"/>
    <g id="Group_1463" data-name="Group 1463" transform="translate(31.895 43.334)">
      <path id="Path_303" data-name="Path 303" d="M173.766,57.8a6.143,6.143,0,0,0-4.939-2.5L64.41,55.332,59.5,44.089a2.508,2.508,0,0,0-2.293-1.5H34A2.506,2.506,0,1,0,34,47.6H55.569l30.624,70.164a6.105,6.105,0,0,0,5.62,3.7h60a6.108,6.108,0,0,0,5.84-4.282L174.669,63.26A6.141,6.141,0,0,0,173.766,57.8Zm-27.072,49.166H95.469a2.5,2.5,0,1,1,0-5.009h51.225a2.5,2.5,0,1,1,0,5.009Zm4.373-15.819H91.1a2.506,2.506,0,1,1,0-5.011h59.969a2.506,2.506,0,0,1,0,5.011Zm3.586-15.822H87.507a2.506,2.506,0,0,1,0-5.011h67.146a2.506,2.506,0,0,1,0,5.011Z" transform="translate(-31.498 -42.586)" fill="#dbdce1"/>
    </g>
    <path id="Path_304" data-name="Path 304" d="M39.119,46.009a3.951,3.951,0,1,1-3.953-3.951A3.951,3.951,0,0,1,39.119,46.009Z" transform="translate(0)" fill="#dbdce1"/>
  </g>
</svg>
