<svg xmlns="http://www.w3.org/2000/svg" width="28" height="28" viewBox="0 0 28 28">
  <g id="GiftVoucher" transform="translate(-28 -485)">
    <circle id="Ellipse_54" data-name="Ellipse 54" cx="14" cy="14" r="14" transform="translate(28 485)" fill="#7c8ab0" opacity="0.15"/>
    <path id="giftvoucher-2" data-name="giftvoucher" d="M3.739,14.039v1.519a.228.228,0,0,0,.073.17.242.242,0,0,0,.175.07H16.7a.245.245,0,0,0,.176-.07.23.23,0,0,0,.072-.17V14.039ZM3.986,17a1.458,1.458,0,0,1-1.053-.42A1.366,1.366,0,0,1,2.5,15.558v-8.3a1.366,1.366,0,0,1,.434-1.019,1.458,1.458,0,0,1,1.053-.42H6.278a1.515,1.515,0,0,1-.154-.38,1.66,1.66,0,0,1-.052-.42A1.9,1.9,0,0,1,6.67,3.6a2.027,2.027,0,0,1,1.466-.58,1.87,1.87,0,0,1,.96.26,3.084,3.084,0,0,1,.774.64l.454.6.475-.6a2.489,2.489,0,0,1,.754-.65,1.925,1.925,0,0,1,.96-.249,2.027,2.027,0,0,1,1.466.58,1.9,1.9,0,0,1,.6,1.419,2.071,2.071,0,0,1-.041.42,1.035,1.035,0,0,1-.165.38H16.7a1.458,1.458,0,0,1,1.053.42,1.366,1.366,0,0,1,.434,1.019v8.3a1.366,1.366,0,0,1-.434,1.019A1.458,1.458,0,0,1,16.7,17ZM3.739,11.96H16.951v-4.7a.23.23,0,0,0-.072-.17.245.245,0,0,0-.176-.07H12.182L13.524,8.8a.423.423,0,0,1,.083.4.979.979,0,0,1-.227.4.609.609,0,0,1-.454.1.579.579,0,0,1-.392-.24L10.324,6.583l-2.209,2.9a.591.591,0,0,1-.413.249A.479.479,0,0,1,7.29,9.6a.568.568,0,0,1-.258-.4.533.533,0,0,1,.113-.42l1.3-1.759H3.986a.242.242,0,0,0-.175.07.228.228,0,0,0-.073.17Zm4.4-6.137a.813.813,0,0,0,.589-.23.8.8,0,0,0,0-1.139.869.869,0,0,0-1.177,0,.8.8,0,0,0,0,1.139A.811.811,0,0,0,8.136,5.823Zm4.377,0a.813.813,0,0,0,.589-.23.8.8,0,0,0,0-1.139.869.869,0,0,0-1.177,0,.8.8,0,0,0,0,1.139A.811.811,0,0,0,12.513,5.823Z" transform="translate(31.5 488.975)" fill="#7c8ab0"/>
  </g>
</svg>
