<svg xmlns="http://www.w3.org/2000/svg" width="28" height="28" viewBox="0 0 28 28">
  <g id="Help" transform="translate(-28 -536)">
    <circle id="Ellipse_55" data-name="Ellipse 55" cx="14" cy="14" r="14" transform="translate(28 536)" fill="#7c8ab0" opacity="0.15"/>
    <path id="help-2" data-name="help" d="M11.345,14.3a.794.794,0,0,1-.615-.275A.832.832,0,0,1,10.5,13.4a4,4,0,0,1,.443-1.631,5.917,5.917,0,0,1,1.284-1.521A9.364,9.364,0,0,0,13.483,8.86a2.365,2.365,0,0,0,.432-1.388,2.355,2.355,0,0,0-.691-1.73,2.562,2.562,0,0,0-1.9-.694,2.616,2.616,0,0,0-1.382.341,2.734,2.734,0,0,0-.907.893,1.012,1.012,0,0,1-.54.407.874.874,0,0,1-.626-.033.752.752,0,0,1-.464-.5.805.805,0,0,1,.054-.672A4.7,4.7,0,0,1,9.025,3.934a4.344,4.344,0,0,1,2.3-.584,4.19,4.19,0,0,1,3.217,1.2,4.039,4.039,0,0,1,1.123,2.854,3.694,3.694,0,0,1-.442,1.829,7.407,7.407,0,0,1-1.328,1.653,7.752,7.752,0,0,0-1.2,1.344,2.875,2.875,0,0,0-.421,1.168,1.037,1.037,0,0,1-.3.651.864.864,0,0,1-.626.253Zm-.022,5.047a1.235,1.235,0,0,1-.917-.386,1.348,1.348,0,0,1,0-1.872,1.27,1.27,0,0,1,1.824,0,1.322,1.322,0,0,1,0,1.872A1.247,1.247,0,0,1,11.324,19.35Z" transform="translate(30.643 538.65)" fill="#7c8ab0"/>
  </g>
</svg>
