<svg xmlns="http://www.w3.org/2000/svg" width="14" height="14" viewBox="0 0 14 14">
  <g id="mobile" transform="translate(-26 -155)">
    <circle id="Ellipse_56" data-name="Ellipse 56" cx="7" cy="7" r="7" transform="translate(26 155)" fill="#f2f3f7"/>
    <path id="mobilenumber" d="M10.065,10.472A5.385,5.385,0,0,1,7.695,9.9a7.7,7.7,0,0,1-2.1-1.5,7.732,7.732,0,0,1-1.5-2.1,5.375,5.375,0,0,1-.571-2.375A.422.422,0,0,1,3.957,3.5H5.294a.429.429,0,0,1,.432.35l.237,1.213a.739.739,0,0,1-.01.278.426.426,0,0,1-.134.216l-.946.925A7.6,7.6,0,0,0,6.039,7.973,7.456,7.456,0,0,0,7.566,9.135l.915-.925a.563.563,0,0,1,.242-.144.656.656,0,0,1,.283-.021l1.141.237a.436.436,0,0,1,.252.144.41.41,0,0,1,.1.278V10.04a.422.422,0,0,1-.432.432ZM4.584,5.9l.73-.7A.091.091,0,0,0,5.34,5.15.07.07,0,0,0,5.335,5.1L5.16,4.179a.093.093,0,0,0-.031-.046.084.084,0,0,0-.051-.015H4.2a.064.064,0,0,0-.046.015.05.05,0,0,0-.015.036,5.124,5.124,0,0,0,.139.858A5.024,5.024,0,0,0,4.584,5.9ZM9.828,9.834a.05.05,0,0,0,.036-.016.049.049,0,0,0,.015-.036V8.919a.084.084,0,0,0-.015-.051.093.093,0,0,0-.046-.031l-.864-.175a.044.044,0,0,0-.041,0l-.041.021-.73.74a4.344,4.344,0,0,0,1.686.411ZM8.152,9.423ZM4.584,5.9Z" transform="translate(25.949 155.218)" fill="#7c8ab0"/>
  </g>
</svg>
