<svg xmlns="http://www.w3.org/2000/svg" width="28" height="28" viewBox="0 0 28 28">
  <g id="Myorder" transform="translate(-28 -235)">
    <circle id="Ellipse_49" data-name="Ellipse 49" cx="14" cy="14" r="14" transform="translate(28 235)" fill="#7c8ab0" opacity="0.15"/>
    <path id="myorder-2" data-name="myorder" d="M6.013,18.472A1.507,1.507,0,0,1,4.5,16.959V7.376A1.507,1.507,0,0,1,6.013,5.863H7.652v-.21a3.036,3.036,0,0,1,.925-2.228,3.146,3.146,0,0,1,4.455,0,3.036,3.036,0,0,1,.925,2.228v.21H15.6A1.507,1.507,0,0,1,17.11,7.376v9.583A1.507,1.507,0,0,1,15.6,18.472Zm0-1.261H15.6a.3.3,0,0,0,.252-.252V7.376a.3.3,0,0,0-.252-.252H13.957V9.015a.631.631,0,1,1-1.261,0V7.124H8.913V9.015a.631.631,0,1,1-1.261,0V7.124H6.013a.3.3,0,0,0-.252.252v9.583a.3.3,0,0,0,.252.252Zm2.9-11.349H12.7v-.21A1.9,1.9,0,0,0,9.46,4.307a1.828,1.828,0,0,0-.546,1.345ZM5.761,17.211v0Z" transform="translate(31.195 238.514)" fill="#7c8ab0"/>
  </g>
</svg>
