<svg xmlns="http://www.w3.org/2000/svg" width="146" height="175.641" viewBox="0 0 146 175.641">
  <g id="No_experiment" data-name="No experiment" transform="translate(-107 -323.359)">
    <text id="No_Exeriment_available" data-name="No Exeriment
available" transform="translate(180 464)" fill="#f1f3fb" font-size="22" font-family="OpenSans-SemiBold, Open Sans" font-weight="600" letter-spacing="-0.005em"><tspan x="-72.093" y="0">No Exeriment</tspan><tspan x="-46.981" y="29">available</tspan></text>
    <path id="CarbonDna" d="M42,3.667V1H36.666V3.667a18.773,18.773,0,0,1-.213,2.667H15.547a18.773,18.773,0,0,1-.213-2.667V1H10V3.667C10,13.68,15.253,18.61,20.933,22.333,15.253,26.056,10,30.986,10,41s5.253,14.944,10.933,18.666C15.253,63.389,10,68.319,10,78.332V81h5.333V78.332a18.774,18.774,0,0,1,.213-2.667H36.453a18.773,18.773,0,0,1,.213,2.667V81H42V78.332c0-10.013-5.253-14.944-10.933-18.666C36.746,55.943,42,51.013,42,41S36.746,26.056,31.066,22.333C36.746,18.61,42,13.68,42,3.667ZM36.666,41a18.773,18.773,0,0,1-.213,2.667H15.547a16.856,16.856,0,0,1,0-5.333H36.453A18.773,18.773,0,0,1,36.666,41ZM34.65,70.332h-17.3A23.754,23.754,0,0,1,26,62.786a23.754,23.754,0,0,1,8.651,7.547ZM26,56.546A23.755,23.755,0,0,1,17.349,49h17.3A23.754,23.754,0,0,1,26,56.546ZM34.65,33h-17.3A23.754,23.754,0,0,1,26,25.453,23.754,23.754,0,0,1,34.65,33ZM26,19.213a23.754,23.754,0,0,1-8.651-7.547h17.3A23.754,23.754,0,0,1,26,19.213Z" transform="translate(177.839 317.493) rotate(30)" fill="#f1f3fb"/>
  </g>
</svg>
