<svg xmlns="http://www.w3.org/2000/svg" width="124" height="124" viewBox="0 0 124 124">
  <g id="no_favourite" transform="translate(-118 -240)">
    <circle id="Ellipse_97" data-name="Ellipse 97" cx="62" cy="62" r="62" transform="translate(118 240)" fill="#f1f2f6"/>
    <path id="favourite" d="M25.021,46.967l-3.878-3.606A174.123,174.123,0,0,1,8.183,30.4Q2.5,24.038,2.5,16.758A13.365,13.365,0,0,1,16.108,3.15a15.074,15.074,0,0,1,6.5,1.53,15.442,15.442,0,0,1,5.748,4.934A15.436,15.436,0,0,1,34.105,4.68a15.057,15.057,0,0,1,6.5-1.53A13.365,13.365,0,0,1,54.209,16.758q0,7.348-5.783,13.776A177.723,177.723,0,0,1,35.5,43.429l-3.81,3.47a4.813,4.813,0,0,1-3.334,1.293A4.965,4.965,0,0,1,25.021,46.967Z" transform="translate(151.5 275.85)" fill="#242a37" opacity="0.11"/>
  </g>
</svg>
