<svg xmlns="http://www.w3.org/2000/svg" width="28" height="28" viewBox="0 0 28 28">
  <g id="Notification" transform="translate(-28 -285)">
    <circle id="Ellipse_50" data-name="Ellipse 50" cx="14" cy="14" r="14" transform="translate(28 285)" fill="#7c8ab0" opacity="0.15"/>
    <path id="noti" d="M4.873,16.119a.587.587,0,0,1-.446-.187A.615.615,0,0,1,4.25,15.5a.6.6,0,0,1,.623-.623H5.912V8.846A4.7,4.7,0,0,1,6.951,5.864a4.631,4.631,0,0,1,2.7-1.693V3.589a1.039,1.039,0,1,1,2.078,0v.582a4.631,4.631,0,0,1,2.7,1.693,4.7,4.7,0,0,1,1.039,2.982v6.026H16.51a.6.6,0,0,1,.623.623.616.616,0,0,1-.176.436.589.589,0,0,1-.447.187ZM10.691,10.093Zm0,8.457a1.49,1.49,0,0,1-1.5-1.5h2.992a1.49,1.49,0,0,1-1.5,1.5ZM7.159,14.872h7.065V8.846a3.529,3.529,0,0,0-3.532-3.532A3.529,3.529,0,0,0,7.159,8.846Z" transform="translate(31.75 288.45)" fill="#7c8ab0"/>
  </g>
</svg>
