<svg xmlns="http://www.w3.org/2000/svg" width="28" height="28" viewBox="0 0 28 28">
  <g id="PaymentMethod" transform="translate(-28 -435)">
    <circle id="Ellipse_53" data-name="Ellipse 53" cx="14" cy="14" r="14" transform="translate(28 435)" fill="#7c8ab0" opacity="0.15"/>
    <path id="paymentmethod-2" data-name="paymentmethod" d="M11.3,11.471a1.856,1.856,0,0,1-1.409-.615,2.241,2.241,0,0,1,0-3,1.9,1.9,0,0,1,2.818,0,2.241,2.241,0,0,1,0,3A1.856,1.856,0,0,1,11.3,11.471ZM6.057,14.1a1.335,1.335,0,0,1-1.012-.445,1.524,1.524,0,0,1-.417-1.081V6.151A1.524,1.524,0,0,1,5.045,5.07a1.335,1.335,0,0,1,1.012-.445H16.534a1.335,1.335,0,0,1,1.012.445,1.524,1.524,0,0,1,.417,1.081v6.422a1.524,1.524,0,0,1-.417,1.081,1.335,1.335,0,0,1-1.012.445Zm1.191-1.272h8.1a1.524,1.524,0,0,1,.417-1.081,1.335,1.335,0,0,1,1.012-.445V7.423a1.32,1.32,0,0,1-1.012-.456,1.533,1.533,0,0,1-.417-1.07h-8.1a1.524,1.524,0,0,1-.417,1.081,1.335,1.335,0,0,1-1.012.445V11.3a1.335,1.335,0,0,1,1.012.445A1.524,1.524,0,0,1,7.247,12.827ZM3.279,17.066a1.335,1.335,0,0,1-1.012-.445A1.524,1.524,0,0,1,1.85,15.54V7.783a.643.643,0,0,1,.168-.456.561.561,0,0,1,.427-.18.561.561,0,0,1,.427.18.643.643,0,0,1,.168.456V15.54a.266.266,0,0,0,.238.254H15.006a.544.544,0,0,1,.426.191.65.65,0,0,1,.169.445.638.638,0,0,1-.169.455.557.557,0,0,1-.426.181Zm2.778-4.239H5.819V5.9h.238a.221.221,0,0,0-.168.075.252.252,0,0,0-.07.18v6.422a.252.252,0,0,0,.07.18.221.221,0,0,0,.168.075Z" transform="translate(32.15 438.375)" fill="#7c8ab0"/>
  </g>
</svg>
