<svg xmlns="http://www.w3.org/2000/svg" width="60" height="60" viewBox="0 0 60 60">
  <g id="process" transform="translate(-267 -106.25)">
    <circle id="Ellipse_58" data-name="Ellipse 58" cx="30" cy="30" r="30" transform="translate(267 106.25)" fill="#373091" opacity="0.1"/>
    <path id="process-2" data-name="process" d="M17.121,14.418a.889.889,0,0,1-.878.9H14.487a.9.9,0,0,1,0-1.8h1.756A.889.889,0,0,1,17.121,14.418Zm3.951-.9v4.506a3.563,3.563,0,0,1-3.512,3.6H3.512A3.563,3.563,0,0,1,0,18.023V13.517a3.563,3.563,0,0,1,3.512-3.6H4.39V3.6A3.563,3.563,0,0,1,7.9,0H13.17a3.563,3.563,0,0,1,3.512,3.6V9.913h.878A3.563,3.563,0,0,1,21.072,13.517ZM6.146,9.913h8.78V3.6A1.781,1.781,0,0,0,13.17,1.8H7.9A1.781,1.781,0,0,0,6.146,3.6ZM3.512,19.825H9.658v-8.11H3.512a1.781,1.781,0,0,0-1.756,1.8v4.506A1.781,1.781,0,0,0,3.512,19.825Zm15.8-6.308a1.781,1.781,0,0,0-1.756-1.8H11.414v8.11H17.56a1.781,1.781,0,0,0,1.756-1.8Zm-12.731,0H4.829a.9.9,0,0,0,0,1.8H6.585a.9.9,0,0,0,0-1.8Zm5.707-9.011a.889.889,0,0,0-.878-.9H9.658a.9.9,0,0,0,0,1.8h1.756A.889.889,0,0,0,12.292,4.506Z" transform="translate(285.566 124.686)" fill="#373091"/>
  </g>
</svg>
