<svg xmlns="http://www.w3.org/2000/svg" xmlns:xlink="http://www.w3.org/1999/xlink" width="76.127" height="76.128" viewBox="0 0 76.127 76.128">
  <defs>
    <linearGradient id="linear-gradient" x1="0.5" x2="0.5" y2="1" gradientUnits="objectBoundingBox">
      <stop offset="0" stop-color="#a994e6"/>
      <stop offset="1" stop-color="#7e78ee"/>
    </linearGradient>
    <linearGradient id="linear-gradient-2" y1="0.5" x2="1" y2="0.5" gradientUnits="objectBoundingBox">
      <stop offset="0" stop-color="#ff87a7"/>
      <stop offset="1" stop-color="#ff4778"/>
    </linearGradient>
  </defs>
  <g id="profile_pic" transform="translate(-74.174 -28.663)">
    <path id="Path_2832" data-name="Path 2832" d="M38.063,0A38.064,38.064,0,1,1,0,38.064,38.064,38.064,0,0,1,38.063,0Z" transform="translate(74.174 28.663)" fill="url(#linear-gradient)"/>
    <g id="Group_459" data-name="Group 459" transform="translate(95.831 61.136)">
      <path id="Path_2675" data-name="Path 2675" d="M87.407,414.776s-1.829-.7-2.143-.227a5.415,5.415,0,0,0-.273,3.426,6.821,6.821,0,0,0,1.88,3.261,5.46,5.46,0,0,0,2.308.345A51.325,51.325,0,0,0,87.407,414.776Z" transform="translate(-84.836 -414.387)" fill="#fa9884"/>
      <path id="Path_2676" data-name="Path 2676" d="M92.191,414.776s1.839-.7,2.153-.227a5.494,5.494,0,0,1,.268,3.426,6.74,6.74,0,0,1-1.88,3.261,5.5,5.5,0,0,1-2.313.345A53.038,53.038,0,0,1,92.191,414.776Z" transform="translate(-61.657 -414.387)" fill="#fa9884"/>
    </g>
    <path id="Path_2677" data-name="Path 2677" d="M103.858,429.063a5.773,5.773,0,0,1-2.447-4.786,56.845,56.845,0,0,1,.8-7.892H87.971s.963,5.935.793,7.892a5.745,5.745,0,0,1-2.447,4.786l8.773,13.8Z" transform="translate(17.146 -344.953)" fill="#ffc2ab"/>
    <path id="Path_2678" data-name="Path 2678" d="M100.12,422.485c.18-2.519.762-6.1.762-6.1H86.638s.541,3.323.742,5.821c2.488,2.189,5.141,3.627,6.532,3.627C95.231,425.833,97.724,424.519,100.12,422.485Z" transform="translate(18.478 -344.953)" fill="#fa9884"/>
    <path id="Path_2679" data-name="Path 2679" d="M109,439.525a37.869,37.869,0,0,0,26.031-10.344l-.021-.031c-1.015-.6-10.241-6.095-14.821-8.7a18.521,18.521,0,0,1-2.421-1.607L109,432.642l-8.773-13.8a18.328,18.328,0,0,1-2.411,1.607c-4.58,2.6-13.806,8.093-14.821,8.7l-.031.031A37.911,37.911,0,0,0,109,439.525Z" transform="translate(3.233 -334.736)" fill="url(#linear-gradient-2)"/>
    <path id="Path_2680" data-name="Path 2680" d="M94.691,418.311l-5.713,10.782-.958,5.77,3.22-5.064,5.888,1.829s1.139-9.273,1.2-9.479a1.225,1.225,0,0,0,0-.814c-.118-.222-3.034-3.024-3.034-3.024Z" transform="translate(24.214 -336.957)" fill="#fff"/>
    <path id="Path_2681" data-name="Path 2681" d="M89.714,418.311l5.713,10.782.953,5.77L93.16,429.8l-5.883,1.829s-1.138-9.273-1.2-9.479a1.225,1.225,0,0,1,0-.814c.124-.222,3.039-3.024,3.039-3.024Z" transform="translate(15.854 -336.957)" fill="#fff"/>
    <path id="Path_2682" data-name="Path 2682" d="M99.8,410c12.323,0,14.62,11.246,14.569,15.671s-1.108,9.34-2.71,15.31c-1.618,5.961-9.165,8.845-11.859,8.845s-10.252-2.885-11.854-8.845c-1.618-5.971-2.674-10.89-2.725-15.31S87.472,410,99.8,410Z" transform="translate(12.59 -371.474)" fill="#ffc2ab"/>
    <path id="Path_2683" data-name="Path 2683" d="M122.754,425.771a4.643,4.643,0,0,1-1.128-2.354,10.972,10.972,0,0,0-2.143-4.379,3.031,3.031,0,0,0,1.077-2.571.756.756,0,0,0-.732-.639l-.052.005A9.312,9.312,0,0,1,115,413.644a17.048,17.048,0,0,0-10.854-4.266c-5.013-.247-8.433,1.283-10.447,4.709a4.606,4.606,0,0,0-4.8,2.256,30.025,30.025,0,0,0-2.447,6.883,6.506,6.506,0,0,1-2.04,3.1.741.741,0,0,0-.175.834A2.524,2.524,0,0,0,86.27,428.5a31.7,31.7,0,0,0,.773,4.513,5.811,5.811,0,0,0,3.2,3.508.475.475,0,0,0,.453-.036.469.469,0,0,0,.242-.381,18.985,18.985,0,0,1,.592-2.926,6.868,6.868,0,0,0,1.087-1.922l.052.124a.549.549,0,0,0,.474.289c.541,0,1.118-1.056,1.5-1.932a10.167,10.167,0,0,0,.592-2.529,12.494,12.494,0,0,1,.345-1.808c.191-.633.459-1.015.732-1.015.1,0,.366.057.778.453a.506.506,0,0,0,.412.144.5.5,0,0,0,.361-.227,2.467,2.467,0,0,1,1.932-1.344c1.066,0,2.4.994,4.193,3.132a9.747,9.747,0,0,0,5.476,3.251.587.587,0,0,0,.613-.381c.108-.3-.021-.644-.319-1.293a18.573,18.573,0,0,0,5.291,2.169.566.566,0,0,0,.464-.247,1.359,1.359,0,0,0,.129-.7.721.721,0,0,0,.093.067,51.974,51.974,0,0,0,1.576,6.8.529.529,0,0,0,.484.361.285.285,0,0,0,.113-.016,4.02,4.02,0,0,0,1.638-.8.471.471,0,0,0,.108-.119,14.71,14.71,0,0,0,1.582-7.9,2.349,2.349,0,0,0,1.824-1.159A.71.71,0,0,0,122.754,425.771Z" transform="translate(8.268 -374.147)" fill="#242736"/>
  </g>
</svg>
