<svg id="qr" xmlns="http://www.w3.org/2000/svg" width="134.769" height="134.769" viewBox="0 0 134.769 134.769">
  <path id="Path_2081" data-name="Path 2081" d="M15.477,15.477H42.5V2H2V42.431H15.477Zm0,80.862H2v40.431H42.5V123.292H15.477Zm107.816,26.954H96.339v13.477h40.431V96.339H123.292ZM96.339,15.477h26.954V42.431h13.477V2H96.339Z" transform="translate(-2 -2)" fill="#f1f3fb"/>
  <path id="Path_2082" data-name="Path 2082" d="M5,45.431H45.431V5H5ZM18.477,18.477H31.954V31.954H18.477ZM5,99.339H45.431V58.908H5ZM18.477,72.385H31.954V85.862H18.477ZM99.339,5H58.908V45.431H99.339ZM85.862,31.954H72.385V18.477H85.862ZM58.975,58.908H72.452V72.385H58.975ZM72.452,72.385H85.929V85.862H72.452ZM85.929,85.862H99.406V99.339H85.929Zm0-26.954H99.406V72.385H85.929Z" transform="translate(15.215 15.215)" fill="#f1f3fb"/>
</svg>
