<svg xmlns="http://www.w3.org/2000/svg" xmlns:xlink="http://www.w3.org/1999/xlink" width="126.665" height="121.239" viewBox="0 0 126.665 121.239">
  <defs>
    <linearGradient id="linear-gradient" x1="0.5" x2="0.5" y2="1" gradientUnits="objectBoundingBox">
      <stop offset="0.329" stop-color="#5f3794"/>
      <stop offset="0.689" stop-color="#473392"/>
      <stop offset="1" stop-color="#363091"/>
    </linearGradient>
  </defs>
  <path id="suceess" d="M33.931,106.167,17.389,102.7a5.412,5.412,0,0,1-3.308-2.281,5.184,5.184,0,0,1-.945-3.863l1.575-17.015L3.525,66.781a5.325,5.325,0,0,1,0-7.562L14.711,46.458,13.136,29.443a5.184,5.184,0,0,1,.945-3.863A5.412,5.412,0,0,1,17.389,23.3l16.542-3.466L42.6,5.181a6.046,6.046,0,0,1,3.227-2.521,5.44,5.44,0,0,1,3.863.158l15.6,6.617,15.6-6.617a5.44,5.44,0,0,1,3.863-.158,6.046,6.046,0,0,1,3.227,2.521l8.665,14.652L113.176,23.3a5.412,5.412,0,0,1,3.308,2.281,5.184,5.184,0,0,1,.945,3.863l-1.575,17.015L127.04,59.219a5.325,5.325,0,0,1,0,7.562L115.854,79.542l1.575,17.015a5.184,5.184,0,0,1-.945,3.863,5.412,5.412,0,0,1-3.308,2.281l-16.542,3.466-8.665,14.652a6.046,6.046,0,0,1-3.227,2.521,5.44,5.44,0,0,1-3.863-.158l-15.6-6.617-15.6,6.617a5.44,5.44,0,0,1-3.863.158,6.046,6.046,0,0,1-3.227-2.521Zm20.8-26.94a5.711,5.711,0,0,0,7.877,0L88.757,53.075a4.755,4.755,0,0,0,0-6.774,4.534,4.534,0,0,0-3.308-1.418A5.072,5.072,0,0,0,81.982,46.3L58.666,69.774l-10.24-10.24a4.96,4.96,0,0,0-6.617.158,4.569,4.569,0,0,0,0,6.617Z" transform="translate(-1.95 -2.381)" fill="url(#linear-gradient)"/>
</svg>
