<svg xmlns="http://www.w3.org/2000/svg" width="108.348" height="108.348" viewBox="0 0 108.348 108.348">
  <g id="UV_on" data-name="UV on" transform="translate(-126 -363)">
    <path id="Path_2973" data-name="Path 2973" d="M176.174,20.044a52.13,52.13,0,1,1-52.13,52.13,52.129,52.129,0,0,1,52.13-52.13Zm0-2.044a54.174,54.174,0,1,0,54.174,54.174A54.236,54.236,0,0,0,176.174,18Z" transform="translate(4 345)" fill="#837bed"/>
    <g id="Group_1077" data-name="Group 1077" transform="translate(159.051 392.745)">
      <path id="Rectangle_6706" data-name="Rectangle 6706" d="M1.95,0H6.228A1.949,1.949,0,0,1,8.177,1.949V26.67a1.95,1.95,0,0,1-1.95,1.95H1.949A1.949,1.949,0,0,1,0,26.671V1.95A1.95,1.95,0,0,1,1.95,0Z" transform="translate(17.547 0)" fill="#837bed"/>
      <path id="Path_2898" data-name="Path 2898" d="M160.052,77.79a21.619,21.619,0,0,1-14.629-37.552,3.986,3.986,0,0,1,5.391,5.873,13.5,13.5,0,0,0-4.428,10.044,13.666,13.666,0,1,0,22.452-10.444,3.986,3.986,0,1,1,5.129-6.1A21.622,21.622,0,0,1,160.052,77.79Z" transform="translate(-138.416 -28.351)" fill="#837bed"/>
    </g>
  </g>
</svg>
