<svg xmlns="http://www.w3.org/2000/svg" xmlns:xlink="http://www.w3.org/1999/xlink" width="218" height="218" viewBox="0 0 218 218">
  <defs>
    <filter id="Rectangle_169" x="0" y="0" width="218" height="218" filterUnits="userSpaceOnUse">
      <feOffset dy="3" input="SourceAlpha"/>
      <feGaussianBlur stdDeviation="3" result="blur"/>
      <feFlood flood-opacity="0.071"/>
      <feComposite operator="in" in2="blur"/>
      <feComposite in="SourceGraphic"/>
    </filter>
    <linearGradient id="linear-gradient" x1="0.035" y1="1.289" x2="1.027" y2="1.289" gradientUnits="objectBoundingBox">
      <stop offset="0.329" stop-color="#412984"/>
      <stop offset="0.723" stop-color="#222581"/>
      <stop offset="1" stop-color="#122480"/>
    </linearGradient>
    <linearGradient id="linear-gradient-2" x1="0" y1="0.5" x2="1" y2="0.5" xlink:href="#linear-gradient"/>
  </defs>
  <g id="unobiLabs_login" transform="translate(72 -1430)">
    <g transform="matrix(1, 0, 0, 1, -72, 1430)" filter="url(#Rectangle_169)">
      <rect id="Rectangle_169-2" data-name="Rectangle 169" width="200" height="200" rx="9.218" transform="translate(9 6)" fill="#fff"/>
    </g>
    <g id="Group_303" data-name="Group 303" transform="translate(-90.968 1388.304)">
      <path id="Path_519" data-name="Path 519" d="M100.226,693.307a1.531,1.531,0,0,1-2.1.523,16.534,16.534,0,0,1-7.972-10.789,36.906,36.906,0,0,1-.655-9.9,36.279,36.279,0,0,1-9.26,4.125,16.512,16.512,0,0,1-13.06-2.026,1.529,1.529,0,1,1,1.575-2.622c7.7,4.625,14.426.751,20.92-3.137a49.723,49.723,0,0,0-.118-9.062l-5.229,8.705a1.531,1.531,0,0,1-2.624-1.577l6.793-11.3a13.005,13.005,0,0,0-1.981-3.389L75.6,671.02a1.529,1.529,0,0,1-2.622-1.575L84.265,650.66a17.026,17.026,0,0,0-1.644-1.124,1.529,1.529,0,1,1,1.575-2.622,16.535,16.535,0,0,1,7.973,10.791c.966,4.043.739,8.466.52,12.746-.121,2.349-.239,4.66-.166,6.873l-.022.037a19.958,19.958,0,0,0,1.378,7.2l-.016.027a13.343,13.343,0,0,0,.885,1.779.223.223,0,0,1,.014.027,11.786,11.786,0,0,0,4.014,4.248c.12.073.24.144.36.208.181.121.37.239.566.357A1.532,1.532,0,0,1,100.226,693.307Z" transform="translate(-12.127 -537)" fill="url(#linear-gradient)"/>
      <g id="Group_295" data-name="Group 295" transform="translate(82.315 130.801)">
        <path id="Path_520" data-name="Path 520" d="M211.168,739.248v8.666a10.692,10.692,0,0,1-.716,3.993,9.583,9.583,0,0,1-2.212,3.431,11.915,11.915,0,0,1-8.557,3.135H198.22a11.888,11.888,0,0,1-8.524-3.135,9.579,9.579,0,0,1-2.212-3.431,10.709,10.709,0,0,1-.749-3.993v-8.666a2.092,2.092,0,0,1,4.165,0v8.666c0,3.283,1.92,6.8,7.32,6.8h1.464c5.433,0,7.353-3.52,7.353-6.8v-8.666a2.008,2.008,0,0,1,2.082-1.893A1.978,1.978,0,0,1,211.168,739.248Z" transform="translate(-186.735 -737.355)" fill="url(#linear-gradient-2)"/>
        <path id="Path_521" data-name="Path 521" d="M333.476,743.093a8.521,8.521,0,0,1,.813,3.667v9.82a2.074,2.074,0,0,1-4.132,0v-9.82c0-3.106-2.8-5.649-6.214-5.649H320.2c-3.417,0-6.214,2.544-6.214,5.649v9.82a1.959,1.959,0,0,1-2.05,1.893,1.989,1.989,0,0,1-2.082-1.893v-9.82a9.019,9.019,0,0,1,.813-3.667,10.03,10.03,0,0,1,2.212-2.987,10.378,10.378,0,0,1,3.286-2.011,11.557,11.557,0,0,1,4.034-.739h3.741a11.559,11.559,0,0,1,4.034.739,10.384,10.384,0,0,1,3.286,2.011A10.033,10.033,0,0,1,333.476,743.093Z" transform="translate(-281.194 -737.355)" fill="url(#linear-gradient-2)"/>
        <path id="Path_522" data-name="Path 522" d="M457.675,743.862a9.975,9.975,0,0,1,.813,4.052,10.118,10.118,0,0,1-.813,4.081,9.57,9.57,0,0,1-2.505,3.4,13.8,13.8,0,0,1-9.3,3.076h-1.659a13.8,13.8,0,0,1-9.3-3.076,9.19,9.19,0,0,1-2.506-3.4,10.113,10.113,0,0,1-.813-4.081,9.971,9.971,0,0,1,.813-4.052,9.54,9.54,0,0,1,2.506-3.431,13.8,13.8,0,0,1,9.3-3.076h1.659a13.8,13.8,0,0,1,9.3,3.076A9.948,9.948,0,0,1,457.675,743.862Zm-3.319,4.052c0-4.17-3.253-6.8-8.491-6.8h-1.659c-5.238,0-8.492,2.632-8.492,6.8,0,4.2,3.254,6.8,8.492,6.8h1.659C451.1,754.717,454.356,752.114,454.356,747.914Z" transform="translate(-374.582 -737.355)" fill="url(#linear-gradient-2)"/>
        <path id="Path_523" data-name="Path 523" d="M586.962,743.566a5.949,5.949,0,0,1-1.952,4.348,5.835,5.835,0,0,1,1.952,4.318v.03c0,3.431-3.059,6.211-6.833,6.211H564.61a1.988,1.988,0,0,1-2.082-1.893v-8.666a1.988,1.988,0,0,1,2.082-1.893h15.519a2.466,2.466,0,1,0,0-4.91H564.61a1.985,1.985,0,0,1-2.082-1.864,2.008,2.008,0,0,1,2.082-1.893h15.519C583.9,737.355,586.962,740.165,586.962,743.566Zm-4.132,8.666a2.58,2.58,0,0,0-2.7-2.455H566.66v4.939h13.469a2.58,2.58,0,0,0,2.7-2.455Z" transform="translate(-475.044 -737.355)" fill="url(#linear-gradient-2)"/>
        <path id="Path_524" data-name="Path 524" d="M688.384,739.248V756.58a1.989,1.989,0,0,1-2.082,1.893,1.959,1.959,0,0,1-2.049-1.893V739.248a1.978,1.978,0,0,1,2.049-1.893A2.008,2.008,0,0,1,688.384,739.248Z" transform="translate(-568.431 -737.355)" fill="url(#linear-gradient-2)"/>
      </g>
      <g id="Group_296" data-name="Group 296" transform="translate(53.968 156.108)">
        <path id="Path_525" data-name="Path 525" d="M94.623,872.378a2.722,2.722,0,0,1-2.85,2.591h-24a2.682,2.682,0,0,1-2.805-2.591V848.656a2.708,2.708,0,0,1,2.805-2.59,2.749,2.749,0,0,1,2.85,2.59v21.172h21.15A2.717,2.717,0,0,1,94.623,872.378Z" transform="translate(-64.968 -846.065)" fill="url(#linear-gradient-2)"/>
        <path id="Path_526" data-name="Path 526" d="M246.674,871.325a2.494,2.494,0,0,1-1.425,3.4,2.816,2.816,0,0,1-1.158.243,2.917,2.917,0,0,1-2.583-1.5l-9.885-19.8a4.722,4.722,0,0,0-4.23-2.429,4.672,4.672,0,0,0-4.23,2.429l-9.93,19.8a2.9,2.9,0,0,1-3.74,1.255,2.443,2.443,0,0,1-1.38-3.4L218,851.571a10.731,10.731,0,0,1,18.746,0Zm-14.2-5.667a5.1,5.1,0,1,1-5.076-4.615A4.859,4.859,0,0,1,232.469,865.658Z" transform="translate(-174.584 -846.065)" fill="url(#linear-gradient-2)"/>
        <path id="Path_527" data-name="Path 527" d="M428.352,854.566a8.143,8.143,0,0,1-2.672,5.951,7.985,7.985,0,0,1,2.672,5.91v.041c0,4.7-4.185,8.5-9.351,8.5h-21.24a2.722,2.722,0,0,1-2.849-2.591V860.517a2.722,2.722,0,0,1,2.849-2.591H419a3.375,3.375,0,1,0,0-6.72h-21.24a2.716,2.716,0,0,1-2.849-2.55,2.749,2.749,0,0,1,2.849-2.59H419C424.166,846.065,428.352,849.911,428.352,854.566ZM422.7,866.427a3.531,3.531,0,0,0-3.7-3.359H400.567v6.76H419a3.531,3.531,0,0,0,3.7-3.36Z" transform="translate(-318.102 -846.065)" fill="url(#linear-gradient-2)"/>
        <path id="Path_528" data-name="Path 528" d="M593.035,866.467c0,4.7-4.23,8.5-9.351,8.5H564.315a2.584,2.584,0,1,1,0-5.141h19.369a3.375,3.375,0,1,0,0-6.72H568.946c-5.165,0-9.351-3.846-9.351-8.5,0-4.7,4.185-8.542,9.351-8.542h19.369a2.708,2.708,0,0,1,2.805,2.59,2.676,2.676,0,0,1-2.805,2.55H568.946a3.394,3.394,0,1,0,0,6.761h14.738C588.8,857.967,593.035,861.772,593.035,866.467Z" transform="translate(-444.447 -846.065)" fill="url(#linear-gradient-2)"/>
      </g>
    </g>
  </g>
</svg>
