<?xml version="1.0" encoding="utf-8"?>
<!-- Generator: Adobe Illustrator 16.0.0, SVG Export Plug-In . SVG Version: 6.00 Build 0)  -->
<!DOCTYPE svg PUBLIC "-//W3C//DTD SVG 1.1//EN" "http://www.w3.org/Graphics/SVG/1.1/DTD/svg11.dtd">
<svg version="1.1" id="Layer_1" xmlns="http://www.w3.org/2000/svg" xmlns:xlink="http://www.w3.org/1999/xlink" x="0px" y="0px"
	 width="850.667px" height="232px" viewBox="0 0 850.667 232" enable-background="new 0 0 850.667 232" xml:space="preserve">
<g display="none">
	<g display="inline">
		
			<linearGradient id="SVGID_1_" gradientUnits="userSpaceOnUse" x1="2646.4956" y1="441.1743" x2="2831.355" y2="441.1743" gradientTransform="matrix(-0.5286 -0.8489 -0.8489 0.5286 2316.7271 2253.375)">
			<stop  offset="0.3295" style="stop-color:#5F3795"/>
			<stop  offset="0.7334" style="stop-color:#453292"/>
			<stop  offset="1" style="stop-color:#363091"/>
		</linearGradient>
		<path fill="url(#SVGID_1_)" d="M553.568,17.27c4.629,0.002,8.393,3.751,8.389,8.383c0.031,27.104-9.176,49.325-28.123,67.938
			c-12.674,12.459-28.494,22.155-44.65,31.076c15.906,8.709,32.447,18.725,45.557,31.818c18.422,18.411,27.383,40.346,27.408,67.064
			c0.014,4.632-3.742,8.386-8.375,8.396c-4.633-0.003-8.396-3.748-8.391-8.382c-0.055-49.243-37.264-69.871-73.881-89.374
			c-15.234,8.159-29.975,16.307-42.223,26.178l55.664-0.063c4.633,0.007,8.395,3.753,8.393,8.384
			c0.004,4.626-3.746,8.39-8.377,8.397l-72.276,0.054c-4.281,5.673-7.791,11.899-10.313,18.89l116.151-0.109
			c4.629-0.004,8.389,3.744,8.393,8.369c0.004,4.641-3.752,8.394-8.377,8.397l-120.117,0.117c-0.414,3.466-0.627,7.094-0.629,10.897
			c0.014,4.633-3.742,8.387-8.376,8.399c-4.625,0.002-8.386-3.746-8.39-8.386c-0.031-27.104,9.174-49.325,28.134-67.949
			c16.249-15.967,37.665-27.41,58.383-38.479c11.377-6.077,22.563-12.052,32.75-18.654l0.236-0.003c0,0,16.918-9.541,29.92-26.83
			l0.172-0.006c2.164-2.896,4.119-5.955,5.852-9.182c0.025-0.056,0.063-0.104,0.086-0.143c4.955-8.855,8.439-19.201,8.6-30.863
			c0.008-0.771-0.002-1.529-0.037-2.279c0.055-1.191,0.072-2.414,0.07-3.662C545.187,21.043,548.933,17.283,553.568,17.27z"/>
		
			<linearGradient id="SVGID_2_" gradientUnits="userSpaceOnUse" x1="-2715.2451" y1="442.1431" x2="-2530.3848" y2="442.1431" gradientTransform="matrix(0.5286 0.8489 0.8489 -0.5286 1433.7406 2531.3037)">
			<stop  offset="0.3295" style="stop-color:#5F3795"/>
			<stop  offset="0.7334" style="stop-color:#453292"/>
			<stop  offset="1" style="stop-color:#363091"/>
		</linearGradient>
		<path fill="url(#SVGID_2_)" d="M363.506,215.316c-4.628-0.006-8.393-3.752-8.389-8.384c-0.03-27.105,9.175-49.325,28.123-67.941
			c12.674-12.457,28.494-22.154,44.65-31.072c-15.905-8.709-32.446-18.725-45.555-31.818
			c-18.422-18.413-27.384-40.349-27.408-67.068c-0.014-4.629,3.741-8.383,8.374-8.396c4.632,0.006,8.396,3.751,8.391,8.384
			c0.056,49.243,37.264,69.868,73.88,89.373c15.234-8.16,29.977-16.308,42.223-26.177l-55.664,0.061
			c-4.633-0.005-8.393-3.752-8.391-8.384c-0.005-4.624,3.745-8.388,8.375-8.397l72.275-0.054
			c4.283-5.673,7.791-11.898,10.316-18.889l-116.155,0.111c-4.627,0.003-8.388-3.745-8.392-8.369
			c-0.003-4.643,3.753-8.396,8.377-8.4l120.117-0.115c0.414-3.469,0.627-7.097,0.629-10.899c-0.014-4.632,3.742-8.386,8.377-8.397
			c4.625-0.005,8.385,3.742,8.389,8.383c0.031,27.104-9.174,49.325-28.133,67.951c-16.25,15.963-37.664,27.407-58.385,38.478
			c-11.375,6.079-22.563,12.053-32.75,18.655h-0.235c0,0-16.918,9.543-29.921,26.834l-0.172,0.002
			c-2.164,2.899-4.118,5.959-5.854,9.185c-0.023,0.055-0.06,0.103-0.085,0.144c-4.955,8.854-8.438,19.2-8.599,30.862
			c-0.007,0.771,0.002,1.528,0.037,2.278c-0.055,1.191-0.072,2.416-0.071,3.664C371.888,211.543,368.141,215.301,363.506,215.316z"
			/>
	</g>
	<g display="inline">
		
			<linearGradient id="SVGID_3_" gradientUnits="userSpaceOnUse" x1="-129.5889" y1="156.6538" x2="-65.563" y2="156.6538" gradientTransform="matrix(1 0 0 -1 130 273.001)">
			<stop  offset="0.3295" style="stop-color:#5F3795"/>
			<stop  offset="0.7334" style="stop-color:#453292"/>
			<stop  offset="1" style="stop-color:#363091"/>
		</linearGradient>
		<path fill="url(#SVGID_3_)" d="M64.437,91.367v24.979c0,4.092-0.597,8.014-1.876,11.51c-1.278,3.75-3.239,7.076-5.797,9.889
			c-5.456,5.883-13.215,9.039-22.422,9.039h-3.836c-9.208,0-16.881-3.156-22.337-9.039c-2.558-2.813-4.519-6.139-5.883-9.889
			c-1.193-3.496-1.875-7.418-1.875-11.51V91.367c0-2.984,2.472-5.457,5.456-5.457c2.983,0,5.371,2.473,5.371,5.457v24.979
			c0,9.464,5.115,19.607,19.268,19.607h3.836c14.237,0,19.268-10.145,19.268-19.607V91.367c0-2.984,2.473-5.457,5.456-5.457
			C62.05,85.91,64.437,88.383,64.437,91.367z"/>
		
			<linearGradient id="SVGID_4_" gradientUnits="userSpaceOnUse" x1="-54.4819" y1="156.6538" x2="9.5439" y2="156.6538" gradientTransform="matrix(1 0 0 -1 130 273.001)">
			<stop  offset="0.3295" style="stop-color:#5F3795"/>
			<stop  offset="0.7334" style="stop-color:#453292"/>
			<stop  offset="1" style="stop-color:#363091"/>
		</linearGradient>
		<path fill="url(#SVGID_4_)" d="M137.412,102.45c1.449,3.41,2.132,6.906,2.132,10.572v28.305c0,3.068-2.388,5.457-5.371,5.457
			c-3.069,0-5.456-2.389-5.456-5.457v-28.305c0-8.952-7.332-16.284-16.284-16.284h-9.804c-8.951,0-16.283,7.332-16.283,16.284
			v28.305c0,3.068-2.388,5.457-5.371,5.457s-5.457-2.389-5.457-5.457v-28.305c0-3.666,0.768-7.162,2.132-10.572
			c1.364-3.154,3.325-6.053,5.798-8.611c2.472-2.472,5.37-4.433,8.61-5.797c3.324-1.363,6.905-2.132,10.571-2.132h9.804
			c3.666,0,7.246,0.769,10.572,2.132c3.239,1.364,6.138,3.325,8.61,5.797C134.088,96.397,136.048,99.296,137.412,102.45z"/>
		
			<linearGradient id="SVGID_5_" gradientUnits="userSpaceOnUse" x1="19.7729" y1="156.6538" x2="90.2778" y2="156.6538" gradientTransform="matrix(1 0 0 -1 130 273.001)">
			<stop  offset="0.3295" style="stop-color:#5F3795"/>
			<stop  offset="0.7334" style="stop-color:#453292"/>
			<stop  offset="1" style="stop-color:#363091"/>
		</linearGradient>
		<path fill="url(#SVGID_5_)" d="M218.146,104.667c1.45,3.581,2.132,7.588,2.132,11.68c0,4.178-0.682,8.099-2.132,11.765
			c-1.533,3.752-3.665,7.076-6.563,9.805c-5.968,5.797-14.408,8.867-24.383,8.867h-4.348c-9.975,0-18.415-3.07-24.384-8.867
			c-2.898-2.729-5.114-6.053-6.563-9.805c-1.449-3.666-2.132-7.587-2.132-11.765c0-4.092,0.683-8.099,2.132-11.68
			c1.449-3.751,3.665-7.076,6.563-9.89c5.969-5.797,14.409-8.867,24.384-8.867h4.348c9.975,0,18.415,3.07,24.383,8.867
			C214.481,97.591,216.613,100.916,218.146,104.667z M209.451,116.347c0-12.021-8.524-19.608-22.251-19.608h-4.348
			c-13.727,0-22.252,7.587-22.252,19.608c0,12.106,8.525,19.608,22.252,19.608h4.348
			C200.927,135.956,209.451,128.454,209.451,116.347z"/>
		
			<linearGradient id="SVGID_6_" gradientUnits="userSpaceOnUse" x1="99.6563" y1="156.6548" x2="163.6821" y2="156.6548" gradientTransform="matrix(1 0 0 -1 130 273.001)">
			<stop  offset="0.3295" style="stop-color:#5F3795"/>
			<stop  offset="0.7334" style="stop-color:#453292"/>
			<stop  offset="1" style="stop-color:#363091"/>
		</linearGradient>
		<path fill="url(#SVGID_6_)" d="M293.682,103.814c0,4.859-1.96,9.293-5.115,12.532c3.155,3.154,5.115,7.588,5.115,12.445v0.086
			c0,9.891-8.015,17.904-17.903,17.904h-40.666c-2.983,0-5.457-2.388-5.457-5.457v-24.979c0-3.069,2.474-5.456,5.457-5.456h40.666
			c3.922,0,7.076-3.155,7.076-7.076c0-3.837-3.154-7.076-7.076-7.076h-40.666c-2.983,0-5.457-2.388-5.457-5.371
			c0-2.984,2.474-5.457,5.457-5.457h40.666C285.667,85.91,293.682,94.011,293.682,103.814z M282.854,128.793
			c0-3.922-3.154-7.076-7.076-7.076h-35.295v14.238h35.295c3.922,0,7.076-3.154,7.076-7.076V128.793z"/>
		
			<linearGradient id="SVGID_7_" gradientUnits="userSpaceOnUse" x1="172.2061" y1="156.6538" x2="213.7236" y2="156.6538" gradientTransform="matrix(1 0 0 -1 130 273.001)">
			<stop  offset="0.3295" style="stop-color:#5F3795"/>
			<stop  offset="0.7334" style="stop-color:#453292"/>
			<stop  offset="1" style="stop-color:#363091"/>
		</linearGradient>
		<path fill="url(#SVGID_7_)" d="M328.379,96.738v39.218h9.889c3.07,0,5.456,2.387,5.456,5.371c0,3.068-2.386,5.457-5.456,5.457
			h-30.604c-2.983,0-5.457-2.389-5.457-5.457c0-2.984,2.474-5.371,5.457-5.371h9.889V96.738h-9.889
			c-2.983,0-5.457-2.388-5.457-5.371c0-2.984,2.474-5.457,5.457-5.457h30.604c3.07,0,5.456,2.473,5.456,5.457
			c0,2.983-2.386,5.371-5.456,5.371H328.379z"/>
		
			<linearGradient id="SVGID_8_" gradientUnits="userSpaceOnUse" x1="-129.5791" y1="203.7153" x2="213.6611" y2="203.7153" gradientTransform="matrix(1 0 0 -1 130 273.001)">
			<stop  offset="0.3295" style="stop-color:#5F3795"/>
			<stop  offset="0.7334" style="stop-color:#453292"/>
			<stop  offset="1" style="stop-color:#363091"/>
		</linearGradient>
		<rect x="0.421" y="64.548" fill="url(#SVGID_8_)" width="343.24" height="9.475"/>
		
			<linearGradient id="SVGID_9_" gradientUnits="userSpaceOnUse" x1="-129.5371" y1="109.7007" x2="213.7861" y2="109.7007" gradientTransform="matrix(1 0 0 -1 130 273.001)">
			<stop  offset="0.3295" style="stop-color:#5F3795"/>
			<stop  offset="0.7334" style="stop-color:#453292"/>
			<stop  offset="1" style="stop-color:#363091"/>
		</linearGradient>
		<rect x="0.463" y="158.563" fill="url(#SVGID_9_)" width="343.323" height="9.475"/>
	</g>
	<g display="inline">
		
			<linearGradient id="SVGID_10_" gradientUnits="userSpaceOnUse" x1="444.0854" y1="156.6538" x2="500.8667" y2="156.6538" gradientTransform="matrix(1 0 0 -1 130 273.001)">
			<stop  offset="0.3295" style="stop-color:#5F3795"/>
			<stop  offset="0.7334" style="stop-color:#453292"/>
			<stop  offset="1" style="stop-color:#363091"/>
		</linearGradient>
		<path fill="url(#SVGID_10_)" d="M630.867,141.327c0,3.068-2.473,5.457-5.457,5.457h-26.686c-6.563,0-12.787-2.56-17.477-7.248
			c-4.605-4.604-7.162-10.828-7.162-17.392V91.367c0-2.984,2.387-5.457,5.371-5.457s5.457,2.473,5.457,5.457v30.777
			c0,7.587,6.223,13.812,13.811,13.812h26.686C628.394,135.956,630.867,138.342,630.867,141.327z"/>
		
			<linearGradient id="SVGID_11_" gradientUnits="userSpaceOnUse" x1="507.6851" y1="156.6538" x2="571.7104" y2="156.6538" gradientTransform="matrix(1 0 0 -1 130 273.001)">
			<stop  offset="0.3295" style="stop-color:#5F3795"/>
			<stop  offset="0.7334" style="stop-color:#453292"/>
			<stop  offset="1" style="stop-color:#363091"/>
		</linearGradient>
		<path fill="url(#SVGID_11_)" d="M695.83,91.879c3.836,3.836,5.881,8.951,5.881,14.407v35.041c0,3.068-2.387,5.457-5.371,5.457
			c-2.982,0-5.455-2.389-5.455-5.457v-19.523h-35.211c-3.92,0-7.076,3.154-7.076,7.076s3.156,7.076,7.076,7.076h14.068
			c2.982,0,5.455,2.387,5.455,5.371c0,3.068-2.473,5.457-5.455,5.457h-14.068c-9.889,0-17.988-8.016-17.988-17.904
			s8.102-17.903,17.988-17.903h35.211v-4.689c0-5.285-4.262-9.548-9.463-9.548H647.66c-2.984,0-5.455-2.388-5.455-5.371
			c0-2.984,2.471-5.457,5.455-5.457h33.762C686.876,85.91,691.992,88.042,695.83,91.879z"/>
		
			<linearGradient id="SVGID_12_" gradientUnits="userSpaceOnUse" x1="583.644" y1="156.6548" x2="647.6714" y2="156.6548" gradientTransform="matrix(1 0 0 -1 130 273.001)">
			<stop  offset="0.3295" style="stop-color:#5F3795"/>
			<stop  offset="0.7334" style="stop-color:#453292"/>
			<stop  offset="1" style="stop-color:#363091"/>
		</linearGradient>
		<path fill="url(#SVGID_12_)" d="M777.671,103.814c0,4.859-1.961,9.293-5.115,12.532c3.154,3.154,5.115,7.588,5.115,12.445v0.086
			c0,9.891-8.014,17.904-17.904,17.904h-40.666c-2.982,0-5.457-2.388-5.457-5.457v-24.979c0-3.069,2.475-5.456,5.457-5.456h40.666
			c3.924,0,7.076-3.155,7.076-7.076c0-3.837-3.152-7.076-7.076-7.076h-40.666c-2.982,0-5.457-2.388-5.457-5.371
			c0-2.984,2.475-5.457,5.457-5.457h40.666C769.658,85.91,777.671,94.011,777.671,103.814z M766.843,128.793
			c0-3.922-3.152-7.076-7.076-7.076h-35.295v14.238h35.295c3.924,0,7.076-3.154,7.076-7.076V128.793z"/>
		
			<linearGradient id="SVGID_13_" gradientUnits="userSpaceOnUse" x1="657.0464" y1="156.6538" x2="721.0737" y2="156.6538" gradientTransform="matrix(1 0 0 -1 130 273.001)">
			<stop  offset="0.3295" style="stop-color:#5F3795"/>
			<stop  offset="0.7334" style="stop-color:#453292"/>
			<stop  offset="1" style="stop-color:#363091"/>
		</linearGradient>
		<path fill="url(#SVGID_13_)" d="M851.074,128.879c0,9.89-8.1,17.904-17.904,17.904h-37.086c-2.984,0-5.457-2.389-5.457-5.457
			c0-2.984,2.473-5.371,5.457-5.371h37.086c3.836,0,7.076-3.154,7.076-7.076s-3.24-7.076-7.076-7.076h-28.219
			c-9.891,0-17.904-8.099-17.904-17.902c0-9.89,8.016-17.99,17.904-17.99h37.086c2.982,0,5.371,2.473,5.371,5.457
			c0,2.983-2.389,5.371-5.371,5.371h-37.086c-3.922,0-7.076,3.239-7.076,7.162c0,3.835,3.154,7.075,7.076,7.075h28.219
			C842.974,110.976,851.074,118.989,851.074,128.879z"/>
		
			<linearGradient id="SVGID_14_" gradientUnits="userSpaceOnUse" x1="443.9351" y1="203.7153" x2="721.1128" y2="203.7153" gradientTransform="matrix(1 0 0 -1 130 273.001)">
			<stop  offset="0.3295" style="stop-color:#5F3795"/>
			<stop  offset="0.7334" style="stop-color:#453292"/>
			<stop  offset="1" style="stop-color:#363091"/>
		</linearGradient>
		<rect x="573.935" y="64.548" fill="url(#SVGID_14_)" width="277.178" height="9.475"/>
		
			<linearGradient id="SVGID_15_" gradientUnits="userSpaceOnUse" x1="443.9351" y1="109.7007" x2="720.9878" y2="109.7007" gradientTransform="matrix(1 0 0 -1 130 273.001)">
			<stop  offset="0.3295" style="stop-color:#5F3795"/>
			<stop  offset="0.7334" style="stop-color:#453292"/>
			<stop  offset="1" style="stop-color:#363091"/>
		</linearGradient>
		<rect x="573.935" y="158.563" fill="url(#SVGID_15_)" width="277.053" height="9.475"/>
	</g>
</g>
<g display="none">
	
		<linearGradient id="SVGID_16_" gradientUnits="userSpaceOnUse" x1="31.1382" y1="156.9673" x2="70.9072" y2="156.9673" gradientTransform="matrix(1 0 0 -1 130 273.001)">
		<stop  offset="0.3295" style="stop-color:#5F3795"/>
		<stop  offset="0.7334" style="stop-color:#453292"/>
		<stop  offset="1" style="stop-color:#363091"/>
	</linearGradient>
	<path display="inline" fill="url(#SVGID_16_)" d="M200.907,100.519v15.515c0,2.542-0.371,4.978-1.165,7.149
		c-0.794,2.327-2.012,4.396-3.601,6.144c-3.389,3.651-8.208,5.612-13.927,5.612h-2.383c-5.719,0-10.485-1.961-13.874-5.612
		c-1.588-1.748-2.806-3.814-3.654-6.144c-0.741-2.173-1.165-4.606-1.165-7.149v-15.515c0-1.854,1.535-3.39,3.389-3.39
		s3.336,1.536,3.336,3.39v15.515c0,5.878,3.177,12.181,11.967,12.181h2.383c8.843,0,11.967-6.303,11.967-12.181v-15.515
		c0-1.854,1.536-3.39,3.389-3.39C199.424,97.129,200.907,98.665,200.907,100.519z"/>
	
		<linearGradient id="SVGID_17_" gradientUnits="userSpaceOnUse" x1="77.79" y1="156.9673" x2="117.5571" y2="156.9673" gradientTransform="matrix(1 0 0 -1 130 273.001)">
		<stop  offset="0.3295" style="stop-color:#5F3795"/>
		<stop  offset="0.7334" style="stop-color:#453292"/>
		<stop  offset="1" style="stop-color:#363091"/>
	</linearGradient>
	<path display="inline" fill="url(#SVGID_17_)" d="M246.233,107.402c0.9,2.118,1.324,4.29,1.324,6.566v17.582
		c0,1.904-1.483,3.39-3.336,3.39c-1.906,0-3.389-1.483-3.389-3.39v-17.582c0-5.56-4.554-10.114-10.114-10.114h-6.089
		c-5.56,0-10.114,4.554-10.114,10.114v17.582c0,1.904-1.483,3.39-3.336,3.39s-3.389-1.483-3.389-3.39v-17.582
		c0-2.277,0.477-4.448,1.324-6.566c0.847-1.959,2.065-3.76,3.601-5.349c1.535-1.535,3.335-2.753,5.348-3.601
		c2.064-0.847,4.289-1.324,6.566-1.324h6.089c2.277,0,4.5,0.477,6.566,1.324c2.012,0.848,3.813,2.066,5.348,3.601
		C244.168,103.642,245.386,105.443,246.233,107.402z"/>
	
		<linearGradient id="SVGID_18_" gradientUnits="userSpaceOnUse" x1="123.9102" y1="156.9673" x2="167.7031" y2="156.9673" gradientTransform="matrix(1 0 0 -1 130 273.001)">
		<stop  offset="0.3295" style="stop-color:#5F3795"/>
		<stop  offset="0.7334" style="stop-color:#453292"/>
		<stop  offset="1" style="stop-color:#363091"/>
	</linearGradient>
	<path display="inline" fill="url(#SVGID_18_)" d="M296.379,108.779c0.9,2.225,1.324,4.713,1.324,7.254
		c0,2.594-0.424,5.03-1.324,7.307c-0.953,2.33-2.276,4.396-4.077,6.091c-3.707,3.603-8.95,5.508-15.145,5.508h-2.7
		c-6.195,0-11.438-1.905-15.146-5.508c-1.8-1.695-3.176-3.761-4.077-6.091c-0.9-2.276-1.324-4.713-1.324-7.307
		c0-2.542,0.424-5.03,1.324-7.254c0.9-2.329,2.276-4.396,4.077-6.142c3.708-3.601,8.95-5.508,15.146-5.508h2.7
		c6.195,0,11.438,1.907,15.145,5.508C294.103,104.383,295.427,106.45,296.379,108.779z M290.979,116.033
		c0-7.467-5.295-12.179-13.821-12.179h-2.7c-8.526,0-13.821,4.712-13.821,12.179c0,7.521,5.295,12.18,13.821,12.18h2.7
		C285.684,128.213,290.979,123.554,290.979,116.033z"/>
	
		<linearGradient id="SVGID_19_" gradientUnits="userSpaceOnUse" x1="173.5278" y1="156.9683" x2="213.2959" y2="156.9683" gradientTransform="matrix(1 0 0 -1 130 273.001)">
		<stop  offset="0.3295" style="stop-color:#5F3795"/>
		<stop  offset="0.7334" style="stop-color:#453292"/>
		<stop  offset="1" style="stop-color:#363091"/>
	</linearGradient>
	<path display="inline" fill="url(#SVGID_19_)" d="M343.296,108.25c0,3.018-1.217,5.772-3.177,7.783
		c1.96,1.959,3.177,4.713,3.177,7.731v0.053c0,6.143-4.978,11.121-11.12,11.121h-25.259c-1.853,0-3.389-1.484-3.389-3.389v-15.517
		c0-1.906,1.536-3.388,3.389-3.388h25.259c2.437,0,4.396-1.96,4.396-4.395c0-2.384-1.959-4.396-4.396-4.396h-25.259
		c-1.853,0-3.389-1.483-3.389-3.336c0-1.854,1.536-3.39,3.389-3.39h25.259C338.318,97.129,343.296,102.16,343.296,108.25z
		 M336.571,123.765c0-2.437-1.959-4.396-4.396-4.396h-21.922v8.844h21.922c2.437,0,4.396-1.961,4.396-4.396V123.765z"/>
	
		<linearGradient id="SVGID_20_" gradientUnits="userSpaceOnUse" x1="218.5898" y1="156.9683" x2="244.3779" y2="156.9683" gradientTransform="matrix(1 0 0 -1 130 273.001)">
		<stop  offset="0.3295" style="stop-color:#5F3795"/>
		<stop  offset="0.7334" style="stop-color:#453292"/>
		<stop  offset="1" style="stop-color:#363091"/>
	</linearGradient>
	<path display="inline" fill="url(#SVGID_20_)" d="M364.847,103.854v24.359h6.143c1.907,0,3.389,1.481,3.389,3.336
		c0,1.904-1.481,3.389-3.389,3.389H351.98c-1.854,0-3.391-1.484-3.391-3.389c0-1.854,1.537-3.336,3.391-3.336h6.142v-24.359h-6.142
		c-1.854,0-3.391-1.483-3.391-3.336c0-1.854,1.537-3.39,3.391-3.39h19.009c1.907,0,3.389,1.536,3.389,3.39
		c0,1.853-1.481,3.336-3.389,3.336H364.847z"/>
	
		<linearGradient id="SVGID_21_" gradientUnits="userSpaceOnUse" x1="95.3232" y1="186.1987" x2="334.604" y2="186.1987" gradientTransform="matrix(-1 0 0 -1 495.749 273.001)">
		<stop  offset="0.3295" style="stop-color:#5F3795"/>
		<stop  offset="0.7334" style="stop-color:#453292"/>
		<stop  offset="1" style="stop-color:#363091"/>
	</linearGradient>
	<rect x="161.145" y="83.86" display="inline" fill="url(#SVGID_21_)" width="239.281" height="5.885"/>
	
		<linearGradient id="SVGID_22_" gradientUnits="userSpaceOnUse" x1="31.1709" y1="127.8032" x2="263.4639" y2="127.8032" gradientTransform="matrix(1 0 0 -1 130 273.001)">
		<stop  offset="0.3295" style="stop-color:#5F3795"/>
		<stop  offset="0.7334" style="stop-color:#453292"/>
		<stop  offset="1" style="stop-color:#363091"/>
	</linearGradient>
	<rect x="161.171" y="142.254" display="inline" fill="url(#SVGID_22_)" width="232.293" height="5.886"/>
	
		<linearGradient id="SVGID_23_" gradientUnits="userSpaceOnUse" x1="387.4604" y1="156.9673" x2="422.728" y2="156.9673" gradientTransform="matrix(1 0 0 -1 130 273.001)">
		<stop  offset="0.3295" style="stop-color:#5F3795"/>
		<stop  offset="0.7334" style="stop-color:#453292"/>
		<stop  offset="1" style="stop-color:#363091"/>
	</linearGradient>
	<path display="inline" fill="url(#SVGID_23_)" d="M552.728,131.549c0,1.904-1.533,3.39-3.391,3.39h-16.574
		c-4.074,0-7.939-1.59-10.854-4.502c-2.859-2.858-4.449-6.726-4.449-10.802v-19.116c0-1.854,1.482-3.39,3.336-3.39
		c1.855,0,3.389,1.536,3.389,3.39v19.116c0,4.712,3.867,8.578,8.578,8.578h16.574C551.193,128.213,552.728,129.696,552.728,131.549z
		"/>
	
		<linearGradient id="SVGID_24_" gradientUnits="userSpaceOnUse" x1="426.9644" y1="156.9683" x2="466.7319" y2="156.9683" gradientTransform="matrix(1 0 0 -1 130 273.001)">
		<stop  offset="0.3295" style="stop-color:#5F3795"/>
		<stop  offset="0.7334" style="stop-color:#453292"/>
		<stop  offset="1" style="stop-color:#363091"/>
	</linearGradient>
	<path display="inline" fill="url(#SVGID_24_)" d="M593.078,100.836c2.383,2.383,3.654,5.56,3.654,8.948v21.765
		c0,1.904-1.482,3.389-3.338,3.389c-1.852,0-3.387-1.484-3.387-3.389v-12.127h-21.871c-2.436,0-4.395,1.959-4.395,4.395
		s1.959,4.396,4.395,4.396h8.738c1.852,0,3.389,1.481,3.389,3.336c0,1.904-1.537,3.389-3.389,3.389h-8.738
		c-6.143,0-11.172-4.979-11.172-11.121s5.029-11.12,11.172-11.12h21.871v-2.913c0-3.283-2.648-5.93-5.879-5.93H563.16
		c-1.854,0-3.389-1.483-3.389-3.336c0-1.854,1.535-3.39,3.389-3.39h20.969C587.517,97.129,590.695,98.453,593.078,100.836z"/>
	
		<linearGradient id="SVGID_25_" gradientUnits="userSpaceOnUse" x1="474.144" y1="156.9683" x2="513.9116" y2="156.9683" gradientTransform="matrix(1 0 0 -1 130 273.001)">
		<stop  offset="0.3295" style="stop-color:#5F3795"/>
		<stop  offset="0.7334" style="stop-color:#453292"/>
		<stop  offset="1" style="stop-color:#363091"/>
	</linearGradient>
	<path display="inline" fill="url(#SVGID_25_)" d="M643.912,108.25c0,3.018-1.217,5.772-3.178,7.783
		c1.961,1.959,3.178,4.713,3.178,7.731v0.053c0,6.143-4.977,11.121-11.121,11.121h-25.258c-1.854,0-3.389-1.484-3.389-3.389v-15.517
		c0-1.906,1.535-3.388,3.389-3.388h25.258c2.438,0,4.396-1.96,4.396-4.395c0-2.384-1.959-4.396-4.396-4.396h-25.258
		c-1.854,0-3.389-1.483-3.389-3.336c0-1.854,1.535-3.39,3.389-3.39h25.258C638.935,97.129,643.912,102.16,643.912,108.25z
		 M637.187,123.765c0-2.437-1.959-4.396-4.395-4.396h-21.922v8.844h21.922c2.438,0,4.395-1.961,4.395-4.396V123.765z"/>
	
		<linearGradient id="SVGID_26_" gradientUnits="userSpaceOnUse" x1="519.7378" y1="156.9683" x2="559.5034" y2="156.9683" gradientTransform="matrix(1 0 0 -1 130 273.001)">
		<stop  offset="0.3295" style="stop-color:#5F3795"/>
		<stop  offset="0.7334" style="stop-color:#453292"/>
		<stop  offset="1" style="stop-color:#363091"/>
	</linearGradient>
	<path display="inline" fill="url(#SVGID_26_)" d="M689.503,123.817c0,6.143-5.031,11.121-11.121,11.121h-23.035
		c-1.854,0-3.389-1.484-3.389-3.389c0-1.854,1.535-3.336,3.389-3.336h23.035c2.383,0,4.396-1.961,4.396-4.396
		s-2.014-4.395-4.396-4.395h-17.525c-6.145,0-11.119-5.031-11.119-11.121c0-6.144,4.977-11.174,11.119-11.174h23.033
		c1.855,0,3.336,1.536,3.336,3.39c0,1.853-1.48,3.336-3.336,3.336h-23.033c-2.438,0-4.396,2.011-4.396,4.449
		c0,2.381,1.959,4.394,4.396,4.394h17.525C684.472,112.697,689.503,117.674,689.503,123.817z"/>
	
		<linearGradient id="SVGID_27_" gradientUnits="userSpaceOnUse" x1="2690.8315" y1="454.4106" x2="2804.9055" y2="454.4106" gradientTransform="matrix(-0.5286 -0.8489 -0.8489 0.5286 2316.7271 2253.375)">
		<stop  offset="0.6118" style="stop-color:#5F3795"/>
		<stop  offset="0.8456" style="stop-color:#453292"/>
		<stop  offset="1" style="stop-color:#363091"/>
	</linearGradient>
	<path display="inline" fill="url(#SVGID_27_)" d="M504.716,54.495c2.875,0.001,5.213,2.329,5.211,5.207
		c0.02,16.834-5.699,30.636-17.469,42.197c-7.871,7.739-17.697,13.762-27.732,19.303c9.881,5.408,20.152,11.629,28.297,19.762
		c11.439,11.438,17.008,25.062,17.021,41.656c0.008,2.877-2.324,5.209-5.201,5.215c-2.877-0.002-5.215-2.328-5.211-5.205
		c-0.035-30.586-23.145-43.397-45.889-55.512c-9.463,5.066-18.619,10.127-26.227,16.26l34.574-0.039
		c2.879,0.004,5.215,2.33,5.213,5.207c0.004,2.873-2.326,5.211-5.203,5.215l-44.892,0.033c-2.66,3.525-4.839,7.394-6.406,11.734
		l72.146-0.068c2.873-0.002,5.209,2.326,5.211,5.197c0.002,2.883-2.33,5.213-5.203,5.217l-74.607,0.072
		c-0.257,2.152-0.389,4.406-0.391,6.77c0.009,2.877-2.324,5.209-5.202,5.218c-2.873,0.002-5.208-2.326-5.211-5.209
		c-0.02-16.834,5.698-30.638,17.475-42.205c10.093-9.916,23.393-17.024,36.262-23.899c7.066-3.773,14.014-7.485,20.342-11.585
		l0.146-0.001c0,0,10.508-5.926,18.584-16.665l0.107-0.004c1.344-1.799,2.559-3.699,3.635-5.703
		c0.016-0.035,0.037-0.064,0.053-0.088c3.078-5.502,5.242-11.927,5.342-19.17c0.004-0.479-0.002-0.95-0.023-1.416
		c0.035-0.74,0.045-1.5,0.043-2.274C499.511,56.839,501.837,54.503,504.716,54.495z"/>
	
		<linearGradient id="SVGID_28_" gradientUnits="userSpaceOnUse" x1="-2665.5371" y1="433.8794" x2="-2550.7163" y2="433.8794" gradientTransform="matrix(0.5286 0.8489 0.8489 -0.5286 1433.7406 2531.3037)">
		<stop  offset="0.4874" style="stop-color:#5F3795"/>
		<stop  offset="0.6908" style="stop-color:#453292"/>
		<stop  offset="0.8251" style="stop-color:#363091"/>
	</linearGradient>
	<path display="inline" fill="url(#SVGID_28_)" d="M386.665,177.506c-2.875-0.004-5.213-2.332-5.21-5.209
		c-0.02-16.836,5.699-30.637,17.468-42.198c7.872-7.738,17.698-13.761,27.733-19.3c-9.878-5.409-20.153-11.63-28.294-19.763
		c-11.442-11.437-17.01-25.061-17.024-41.658c-0.008-2.875,2.324-5.207,5.201-5.215c2.877,0.004,5.215,2.331,5.211,5.208
		c0.034,30.585,23.145,43.396,45.889,55.512c9.463-5.068,18.617-10.13,26.225-16.26l-34.574,0.038
		c-2.877-0.002-5.212-2.331-5.211-5.207c-0.003-2.873,2.327-5.21,5.202-5.217l44.893-0.033c2.66-3.524,4.84-7.39,6.408-11.732
		l-72.146,0.069c-2.874,0.001-5.21-2.327-5.212-5.198c-0.002-2.884,2.331-5.215,5.203-5.218l74.608-0.072
		c0.258-2.154,0.391-4.409,0.391-6.771c-0.008-2.876,2.324-5.208,5.203-5.215c2.873-0.003,5.209,2.325,5.211,5.207
		c0.02,16.834-5.697,30.636-17.475,42.206c-10.094,9.915-23.396,17.022-36.266,23.898c-7.064,3.776-14.012,7.488-20.34,11.587
		h-0.146c0,0-10.509,5.927-18.584,16.666l-0.107,0.002c-1.344,1.802-2.558,3.699-3.635,5.703c-0.016,0.035-0.037,0.064-0.053,0.09
		c-3.078,5.5-5.241,11.927-5.342,19.171c-0.004,0.479,0.001,0.946,0.023,1.416c-0.034,0.737-0.045,1.497-0.044,2.272
		C391.871,175.163,389.544,177.497,386.665,177.506z"/>
	
		<linearGradient id="SVGID_29_" gradientUnits="userSpaceOnUse" x1="807.853" y1="186.1987" x2="1003.2026" y2="186.1987" gradientTransform="matrix(-1 0 0 -1 1497.3818 273.001)">
		<stop  offset="0.3295" style="stop-color:#5F3795"/>
		<stop  offset="0.7334" style="stop-color:#453292"/>
		<stop  offset="1" style="stop-color:#363091"/>
	</linearGradient>
	<rect x="494.179" y="83.86" display="inline" fill="url(#SVGID_29_)" width="195.35" height="5.885"/>
	
		<linearGradient id="SVGID_30_" gradientUnits="userSpaceOnUse" x1="364.1792" y1="127.8032" x2="559.4409" y2="127.8032" gradientTransform="matrix(1 0 0 -1 130 273.001)">
		<stop  offset="0.3295" style="stop-color:#5F3795"/>
		<stop  offset="0.7334" style="stop-color:#453292"/>
		<stop  offset="1" style="stop-color:#363091"/>
	</linearGradient>
	<rect x="494.179" y="142.254" display="inline" fill="url(#SVGID_30_)" width="195.262" height="5.886"/>
</g>
<g display="none">
	<g display="inline">
		
			<linearGradient id="SVGID_31_" gradientUnits="userSpaceOnUse" x1="1712.9595" y1="591.4849" x2="2111.115" y2="591.4849" gradientTransform="matrix(-0.5286 -0.8489 -0.8489 0.5286 2316.7271 2253.375)">
			<stop  offset="0.6118" style="stop-color:#5F3795"/>
			<stop  offset="0.8456" style="stop-color:#453292"/>
			<stop  offset="1" style="stop-color:#363091"/>
		</linearGradient>
		<path fill="url(#SVGID_31_)" d="M895.679,571.667c10.033,0.004,18.193,8.131,18.186,18.174
			c0.066,58.756-19.893,106.928-60.965,147.277c-27.479,27.01-61.771,48.031-96.797,67.369c34.48,18.879,70.34,40.592,98.756,68.977
			c39.938,39.914,59.363,87.463,59.418,145.391c0.027,10.039-8.111,18.178-18.154,18.201c-10.041-0.008-18.201-8.129-18.188-18.172
			c-0.121-106.75-80.781-151.471-160.166-193.748c-33.021,17.688-64.979,35.352-91.529,56.75l120.672-0.135
			c10.043,0.012,18.195,8.133,18.191,18.172c0.012,10.031-8.119,18.189-18.158,18.207l-156.684,0.113
			c-9.283,12.301-16.891,25.799-22.357,40.953l251.801-0.238c10.029-0.008,18.184,8.117,18.189,18.139
			c0.008,10.063-8.135,18.199-18.158,18.207l-260.396,0.256c-0.896,7.516-1.357,15.377-1.363,23.625
			c0.029,10.045-8.111,18.182-18.156,18.211c-10.027,0.004-18.182-8.121-18.189-18.182c-0.066-58.756,19.887-106.928,60.99-147.303
			c35.225-34.609,81.65-59.422,126.566-83.416c24.66-13.172,48.91-26.125,70.996-40.439l0.512-0.006
			c0,0,36.676-20.682,64.861-58.162l0.371-0.014c4.693-6.279,8.932-12.91,12.689-19.904c0.055-0.123,0.131-0.225,0.186-0.309
			c10.742-19.201,18.291-41.625,18.643-66.906c0.014-1.674-0.004-3.314-0.082-4.941c0.119-2.582,0.158-5.232,0.152-7.938
			C877.509,579.848,885.632,571.696,895.679,571.667z"/>
		
			<linearGradient id="SVGID_32_" gradientUnits="userSpaceOnUse" x1="-2199.2236" y1="276.5122" x2="-1798.4727" y2="276.5122" gradientTransform="matrix(0.5286 0.8489 0.8489 -0.5286 1433.7406 2531.3037)">
			<stop  offset="0.4874" style="stop-color:#5F3795"/>
			<stop  offset="0.6908" style="stop-color:#453292"/>
			<stop  offset="0.8251" style="stop-color:#363091"/>
		</linearGradient>
		<path fill="url(#SVGID_32_)" d="M483.652,1001.002c-10.031-0.012-18.193-8.133-18.186-18.178
			c-0.064-58.76,19.891-106.926,60.967-147.285c27.477-27.006,61.771-48.027,96.795-67.361
			c-34.479-18.879-70.338-40.592-98.756-68.977c-39.936-39.914-59.363-87.467-59.416-145.395
			c-0.029-10.033,8.109-18.172,18.152-18.201c10.043,0.012,18.203,8.133,18.189,18.176c0.119,106.75,80.781,151.463,160.162,193.748
			c33.025-17.689,64.982-35.355,91.531-56.75l-120.67,0.131c-10.045-0.008-18.197-8.133-18.193-18.172
			c-0.01-10.025,8.119-18.186,18.158-18.207l156.686-0.113c9.283-12.301,16.889-25.795,22.361-40.949l-251.805,0.242
			c-10.031,0.004-18.184-8.121-18.191-18.143c-0.008-10.064,8.137-18.203,18.16-18.211l260.396-0.25
			c0.895-7.521,1.357-15.387,1.363-23.631c-0.029-10.039,8.111-18.178,18.156-18.201c10.027-0.014,18.18,8.111,18.186,18.172
			c0.07,58.756-19.885,106.928-60.986,147.309c-35.227,34.604-81.648,59.412-126.568,83.41
			c-24.66,13.178-48.908,26.129-70.996,40.443h-0.51c0,0-36.676,20.684-64.863,58.174l-0.373,0.004
			c-4.691,6.283-8.928,12.914-12.688,19.908c-0.053,0.117-0.129,0.221-0.186,0.309c-10.74,19.197-18.291,41.625-18.641,66.908
			c-0.016,1.672,0.004,3.311,0.08,4.939c-0.119,2.578-0.156,5.232-0.154,7.939C501.824,992.823,493.701,1000.969,483.652,1001.002z"
			/>
	</g>
	<g display="inline">
		
			<linearGradient id="SVGID_33_" gradientUnits="userSpaceOnUse" x1="244.3154" y1="-837.7505" x2="308.3413" y2="-837.7505" gradientTransform="matrix(1 0 0 -1 130 273.001)">
			<stop  offset="0.3295" style="stop-color:#5F3795"/>
			<stop  offset="0.7334" style="stop-color:#453292"/>
			<stop  offset="1" style="stop-color:#363091"/>
		</linearGradient>
		<path fill="url(#SVGID_33_)" d="M438.341,1085.772v24.979c0,4.092-0.598,8.014-1.877,11.51c-1.277,3.75-3.238,7.076-5.797,9.889
			c-5.456,5.883-13.214,9.039-22.421,9.039h-3.836c-9.208,0-16.881-3.156-22.337-9.039c-2.559-2.813-4.52-6.139-5.883-9.889
			c-1.193-3.496-1.875-7.418-1.875-11.51v-24.979c0-2.984,2.472-5.457,5.456-5.457c2.982,0,5.37,2.473,5.37,5.457v24.979
			c0,9.465,5.115,19.609,19.269,19.609h3.836c14.237,0,19.267-10.146,19.267-19.609v-24.979c0-2.984,2.475-5.457,5.457-5.457
			C435.955,1080.315,438.341,1082.788,438.341,1085.772z"/>
		
			<linearGradient id="SVGID_34_" gradientUnits="userSpaceOnUse" x1="319.4214" y1="-837.7505" x2="383.4487" y2="-837.7505" gradientTransform="matrix(1 0 0 -1 130 273.001)">
			<stop  offset="0.3295" style="stop-color:#5F3795"/>
			<stop  offset="0.7334" style="stop-color:#453292"/>
			<stop  offset="1" style="stop-color:#363091"/>
		</linearGradient>
		<path fill="url(#SVGID_34_)" d="M511.316,1096.854c1.449,3.41,2.133,6.906,2.133,10.572v28.305c0,3.068-2.389,5.457-5.371,5.457
			c-3.07,0-5.457-2.389-5.457-5.457v-28.305c0-8.951-7.332-16.283-16.283-16.283h-9.805c-8.951,0-16.283,7.332-16.283,16.283v28.305
			c0,3.068-2.387,5.457-5.371,5.457c-2.982,0-5.457-2.389-5.457-5.457v-28.305c0-3.666,0.77-7.162,2.133-10.572
			c1.363-3.154,3.324-6.053,5.797-8.611c2.473-2.471,5.371-4.432,8.611-5.797c3.324-1.363,6.904-2.131,10.57-2.131h9.805
			c3.666,0,7.246,0.768,10.572,2.131c3.238,1.365,6.137,3.326,8.609,5.797C507.992,1090.801,509.953,1093.7,511.316,1096.854z"/>
		
			<linearGradient id="SVGID_35_" gradientUnits="userSpaceOnUse" x1="393.6772" y1="-837.7505" x2="464.1831" y2="-837.7505" gradientTransform="matrix(1 0 0 -1 130 273.001)">
			<stop  offset="0.3295" style="stop-color:#5F3795"/>
			<stop  offset="0.7334" style="stop-color:#453292"/>
			<stop  offset="1" style="stop-color:#363091"/>
		</linearGradient>
		<path fill="url(#SVGID_35_)" d="M592.05,1099.071c1.451,3.582,2.133,7.588,2.133,11.68c0,4.178-0.682,8.1-2.133,11.766
			c-1.533,3.752-3.664,7.076-6.563,9.803c-5.969,5.799-14.408,8.869-24.383,8.869h-4.348c-9.975,0-18.416-3.07-24.385-8.869
			c-2.898-2.727-5.113-6.051-6.563-9.803c-1.449-3.666-2.133-7.588-2.133-11.766c0-4.092,0.684-8.098,2.133-11.68
			c1.449-3.75,3.664-7.076,6.563-9.891c5.969-5.797,14.41-8.865,24.385-8.865h4.348c9.975,0,18.414,3.068,24.383,8.865
			C588.386,1091.995,590.517,1095.321,592.05,1099.071z M583.355,1110.75c0-12.021-8.523-19.607-22.252-19.607h-4.348
			c-13.727,0-22.252,7.586-22.252,19.607c0,12.107,8.525,19.609,22.252,19.609h4.348
			C574.832,1130.36,583.355,1122.858,583.355,1110.75z"/>
		
			<linearGradient id="SVGID_36_" gradientUnits="userSpaceOnUse" x1="473.5601" y1="-837.7505" x2="537.5854" y2="-837.7505" gradientTransform="matrix(1 0 0 -1 130 273.001)">
			<stop  offset="0.3295" style="stop-color:#5F3795"/>
			<stop  offset="0.7334" style="stop-color:#453292"/>
			<stop  offset="1" style="stop-color:#363091"/>
		</linearGradient>
		<path fill="url(#SVGID_36_)" d="M667.585,1098.219c0,4.859-1.959,9.293-5.115,12.531c3.156,3.154,5.115,7.588,5.115,12.447v0.086
			c0,9.889-8.014,17.904-17.902,17.904h-40.666c-2.982,0-5.457-2.391-5.457-5.457v-24.98c0-3.068,2.475-5.455,5.457-5.455h40.666
			c3.922,0,7.076-3.156,7.076-7.076c0-3.838-3.154-7.076-7.076-7.076h-40.666c-2.982,0-5.457-2.389-5.457-5.371
			c0-2.984,2.475-5.457,5.457-5.457h40.666C659.572,1080.315,667.585,1088.415,667.585,1098.219z M656.759,1123.198
			c0-3.922-3.154-7.076-7.076-7.076h-35.295v14.238h35.295c3.922,0,7.076-3.154,7.076-7.076V1123.198z"/>
		
			<linearGradient id="SVGID_37_" gradientUnits="userSpaceOnUse" x1="546.1108" y1="-837.7505" x2="587.6284" y2="-837.7505" gradientTransform="matrix(1 0 0 -1 130 273.001)">
			<stop  offset="0.3295" style="stop-color:#5F3795"/>
			<stop  offset="0.7334" style="stop-color:#453292"/>
			<stop  offset="1" style="stop-color:#363091"/>
		</linearGradient>
		<path fill="url(#SVGID_37_)" d="M702.283,1091.143v39.217h9.889c3.07,0,5.457,2.387,5.457,5.371c0,3.068-2.387,5.457-5.457,5.457
			h-30.604c-2.984,0-5.457-2.389-5.457-5.457c0-2.984,2.473-5.371,5.457-5.371h9.889v-39.217h-9.889
			c-2.984,0-5.457-2.389-5.457-5.371c0-2.984,2.473-5.457,5.457-5.457h30.604c3.07,0,5.457,2.473,5.457,5.457
			c0,2.982-2.387,5.371-5.457,5.371H702.283z"/>
		
			<linearGradient id="SVGID_38_" gradientUnits="userSpaceOnUse" x1="-263.8169" y1="-790.688" x2="121.4238" y2="-790.688" gradientTransform="matrix(-1 0 0 -1 495.749 273.001)">
			<stop  offset="0.3295" style="stop-color:#5F3795"/>
			<stop  offset="0.7334" style="stop-color:#453292"/>
			<stop  offset="1" style="stop-color:#363091"/>
		</linearGradient>
		<rect x="374.325" y="1058.952" fill="url(#SVGID_38_)" width="385.241" height="9.475"/>
		
			<linearGradient id="SVGID_39_" gradientUnits="userSpaceOnUse" x1="244.3672" y1="-884.7036" x2="618.3569" y2="-884.7036" gradientTransform="matrix(1 0 0 -1 130 273.001)">
			<stop  offset="0.3295" style="stop-color:#5F3795"/>
			<stop  offset="0.7334" style="stop-color:#453292"/>
			<stop  offset="1" style="stop-color:#363091"/>
		</linearGradient>
		<rect x="374.367" y="1152.967" fill="url(#SVGID_39_)" width="373.99" height="9.475"/>
		
			<linearGradient id="SVGID_40_" gradientUnits="userSpaceOnUse" x1="596.9917" y1="-837.7505" x2="653.771" y2="-837.7505" gradientTransform="matrix(1 0 0 -1 130 273.001)">
			<stop  offset="0.3295" style="stop-color:#5F3795"/>
			<stop  offset="0.7334" style="stop-color:#453292"/>
			<stop  offset="1" style="stop-color:#363091"/>
		</linearGradient>
		<path fill="url(#SVGID_40_)" d="M783.771,1135.731c0,3.066-2.473,5.457-5.457,5.457h-26.686c-6.563,0-12.787-2.561-17.477-7.248
			c-4.604-4.605-7.16-10.828-7.16-17.393v-30.775c0-2.984,2.387-5.457,5.371-5.457c2.982,0,5.455,2.473,5.455,5.457v30.775
			c0,7.586,6.225,13.813,13.811,13.813h26.686C781.298,1130.36,783.771,1132.747,783.771,1135.731z"/>
		
			<linearGradient id="SVGID_41_" gradientUnits="userSpaceOnUse" x1="660.5894" y1="-837.7505" x2="724.6147" y2="-837.7505" gradientTransform="matrix(1 0 0 -1 130 273.001)">
			<stop  offset="0.3295" style="stop-color:#5F3795"/>
			<stop  offset="0.7334" style="stop-color:#453292"/>
			<stop  offset="1" style="stop-color:#363091"/>
		</linearGradient>
		<path fill="url(#SVGID_41_)" d="M848.734,1086.284c3.836,3.836,5.881,8.951,5.881,14.406v35.041c0,3.066-2.387,5.457-5.371,5.457
			c-2.982,0-5.455-2.391-5.455-5.457v-19.523h-35.211c-3.92,0-7.076,3.154-7.076,7.076s3.156,7.076,7.076,7.076h14.066
			c2.984,0,5.457,2.387,5.457,5.371c0,3.066-2.473,5.457-5.457,5.457h-14.066c-9.889,0-17.988-8.018-17.988-17.904
			c0-9.891,8.102-17.904,17.988-17.904h35.211v-4.689c0-5.285-4.262-9.547-9.463-9.547h-33.762c-2.984,0-5.455-2.389-5.455-5.371
			c0-2.984,2.471-5.457,5.455-5.457h33.762C839.781,1080.315,844.896,1082.446,848.734,1086.284z"/>
		
			<linearGradient id="SVGID_42_" gradientUnits="userSpaceOnUse" x1="736.5483" y1="-837.7505" x2="800.5757" y2="-837.7505" gradientTransform="matrix(1 0 0 -1 130 273.001)">
			<stop  offset="0.3295" style="stop-color:#5F3795"/>
			<stop  offset="0.7334" style="stop-color:#453292"/>
			<stop  offset="1" style="stop-color:#363091"/>
		</linearGradient>
		<path fill="url(#SVGID_42_)" d="M930.576,1098.219c0,4.859-1.961,9.293-5.115,12.531c3.154,3.154,5.115,7.588,5.115,12.447v0.086
			c0,9.889-8.014,17.904-17.904,17.904h-40.666c-2.982,0-5.457-2.391-5.457-5.457v-24.98c0-3.068,2.475-5.455,5.457-5.455h40.666
			c3.922,0,7.076-3.156,7.076-7.076c0-3.838-3.154-7.076-7.076-7.076h-40.666c-2.982,0-5.457-2.389-5.457-5.371
			c0-2.984,2.475-5.457,5.457-5.457h40.666C922.562,1080.315,930.576,1088.415,930.576,1098.219z M919.748,1123.198
			c0-3.922-3.154-7.076-7.076-7.076h-35.295v14.238h35.295c3.922,0,7.076-3.154,7.076-7.076V1123.198z"/>
		
			<linearGradient id="SVGID_43_" gradientUnits="userSpaceOnUse" x1="809.9526" y1="-837.7505" x2="873.978" y2="-837.7505" gradientTransform="matrix(1 0 0 -1 130 273.001)">
			<stop  offset="0.3295" style="stop-color:#5F3795"/>
			<stop  offset="0.7334" style="stop-color:#453292"/>
			<stop  offset="1" style="stop-color:#363091"/>
		</linearGradient>
		<path fill="url(#SVGID_43_)" d="M1003.978,1123.284c0,9.889-8.1,17.904-17.902,17.904H948.99c-2.984,0-5.457-2.391-5.457-5.457
			c0-2.984,2.473-5.371,5.457-5.371h37.086c3.836,0,7.076-3.154,7.076-7.076s-3.24-7.076-7.076-7.076h-28.221
			c-9.889,0-17.902-8.1-17.902-17.902c0-9.891,8.014-17.99,17.902-17.99h37.086c2.984,0,5.371,2.473,5.371,5.457
			c0,2.982-2.387,5.371-5.371,5.371h-37.086c-3.922,0-7.074,3.238-7.074,7.162c0,3.834,3.152,7.074,7.074,7.074h28.221
			C995.878,1105.379,1003.978,1113.393,1003.978,1123.284z"/>
		
			<linearGradient id="SVGID_44_" gradientUnits="userSpaceOnUse" x1="493.3647" y1="-790.688" x2="807.8745" y2="-790.688" gradientTransform="matrix(-1 0 0 -1 1497.3818 273.001)">
			<stop  offset="0.3295" style="stop-color:#5F3795"/>
			<stop  offset="0.7334" style="stop-color:#453292"/>
			<stop  offset="1" style="stop-color:#363091"/>
		</linearGradient>
		<rect x="689.507" y="1058.952" fill="url(#SVGID_44_)" width="314.51" height="9.475"/>
		
			<linearGradient id="SVGID_45_" gradientUnits="userSpaceOnUse" x1="559.5073" y1="-884.7036" x2="873.8745" y2="-884.7036" gradientTransform="matrix(1 0 0 -1 130 273.001)">
			<stop  offset="0.3295" style="stop-color:#5F3795"/>
			<stop  offset="0.7334" style="stop-color:#453292"/>
			<stop  offset="1" style="stop-color:#363091"/>
		</linearGradient>
		<rect x="689.507" y="1152.967" fill="url(#SVGID_45_)" width="314.367" height="9.475"/>
	</g>
</g>
<g>
	
		<linearGradient id="SVGID_46_" gradientUnits="userSpaceOnUse" x1="186.7441" y1="145.4692" x2="296.4629" y2="145.4692" gradientTransform="matrix(0.9998 0.022 -0.022 0.9998 -4.1583 -35.6163)">
		<stop  offset="0.3295" style="stop-color:#5F3794"/>
		<stop  offset="0.6889" style="stop-color:#473392"/>
		<stop  offset="1" style="stop-color:#363091"/>
	</linearGradient>
	<path fill="url(#SVGID_46_)" d="M285.417,207.949c-2.249,2.243-5.895,2.252-8.14,0.001c-13.167-13.136-19.482-28.386-19.32-46.612
		c0.104-12.192,3.076-24.574,6.588-36.742c-11.943,3.493-24.83,6.659-37.544,6.666c-17.873,0.004-32.864-6.29-45.843-19.241
		c-2.254-2.243-2.252-5.886-0.011-8.139c2.25-2.247,5.895-2.254,8.14-0.003c23.92,23.868,51.982,15.821,79.214,7.515
		c3.433-11.351,6.633-22.457,7.786-33.188l-26.98,27.039c-2.25,2.246-5.894,2.253-8.139,0.004c-2.248-2.241-2.253-5.886-0.011-8.139
		l35.042-35.097c-0.675-4.83-1.993-9.553-4.159-14.169l-56.308,56.415c-2.242,2.247-5.886,2.253-8.131,0.011
		c-2.255-2.25-2.252-5.893-0.012-8.139l58.226-58.342c-1.481-1.882-3.139-3.746-4.982-5.592c-2.254-2.242-2.253-5.886-0.012-8.14
		c2.243-2.247,5.888-2.253,8.14-0.003c13.167,13.137,19.484,28.386,19.32,46.621c-0.138,15.632-4.976,31.577-9.657,47.001
		c-2.57,8.469-5.1,16.796-6.839,24.944l-0.113,0.113c0,0-3.58,12.839-1.5,27.539l-0.081,0.084c0.356,2.457,0.894,4.889,1.616,7.295
		c0.015,0.04,0.021,0.08,0.027,0.11c1.895,6.703,5.223,13.412,10.805,19.147c0.37,0.379,0.742,0.741,1.124,1.088
		c0.552,0.604,1.136,1.208,1.742,1.813C287.652,202.049,287.659,205.692,285.417,207.949z"/>
	<g>
		<g>
			<linearGradient id="SVGID_47_" gradientUnits="userSpaceOnUse" x1="296.8853" y1="72.6367" x2="372.9019" y2="72.6367">
				<stop  offset="0.3295" style="stop-color:#5F3794"/>
				<stop  offset="0.6889" style="stop-color:#473392"/>
				<stop  offset="1" style="stop-color:#363091"/>
			</linearGradient>
			<path fill="url(#SVGID_47_)" d="M372.902,42.979v29.658c0,4.859-0.709,9.515-2.228,13.666c-1.518,4.453-3.847,8.401-6.883,11.741
				c-6.479,6.984-15.689,10.73-26.62,10.73h-4.555c-10.832,0-20.043-3.746-26.521-10.73c-3.037-3.34-5.364-7.288-6.883-11.741
				c-1.52-4.15-2.328-8.807-2.328-13.666V42.979c0-3.542,2.936-6.478,6.478-6.478c3.543,0,6.479,2.936,6.479,6.478v29.658
				c0,11.236,5.971,23.281,22.775,23.281h4.555c16.903,0,22.876-12.045,22.876-23.281V42.979c0-3.542,2.935-6.478,6.477-6.478
				C370.068,36.5,372.902,39.437,372.902,42.979z"/>
			
				<linearGradient id="SVGID_48_" gradientUnits="userSpaceOnUse" x1="626.9849" y1="-1517.3545" x2="703.0005" y2="-1517.3545" gradientTransform="matrix(-1 0 0 -1 1090.0732 -1444.7178)">
				<stop  offset="0.3295" style="stop-color:#5F3794"/>
				<stop  offset="0.6889" style="stop-color:#473392"/>
				<stop  offset="1" style="stop-color:#363091"/>
			</linearGradient>
			<path fill="url(#SVGID_48_)" d="M387.073,102.294V72.636c0-4.858,0.708-9.515,2.226-13.665c1.52-4.453,3.848-8.4,6.885-11.741
				c6.477-6.984,15.688-10.729,26.62-10.729h4.555c10.831,0,20.041,3.745,26.52,10.729c3.038,3.341,5.365,7.288,6.885,11.741
				c1.517,4.15,2.326,8.807,2.326,13.665v29.658c0,3.543-2.935,6.479-6.477,6.479s-6.479-2.936-6.479-6.479V72.636
				c0-11.235-5.973-23.28-22.775-23.28h-4.555c-16.904,0-22.876,12.045-22.876,23.28v29.658c0,3.543-2.935,6.479-6.479,6.479
				C389.906,108.773,387.073,105.837,387.073,102.294z"/>
			<linearGradient id="SVGID_49_" gradientUnits="userSpaceOnUse" x1="475.2378" y1="72.6367" x2="559.0474" y2="72.6367">
				<stop  offset="0.3295" style="stop-color:#5F3794"/>
				<stop  offset="0.6889" style="stop-color:#473392"/>
				<stop  offset="1" style="stop-color:#363091"/>
			</linearGradient>
			<path fill="url(#SVGID_49_)" d="M556.417,58.77c1.719,4.251,2.631,9.009,2.631,13.866c0,4.96-0.912,9.617-2.631,13.969
				c-1.721,4.454-4.353,8.401-7.693,11.641c-7.086,6.883-17.106,10.527-29.051,10.527h-5.06c-11.944,0-21.965-3.644-29.051-10.527
				c-3.341-3.24-5.973-7.188-7.795-11.641c-1.619-4.352-2.529-9.008-2.529-13.969c0-4.857,0.91-9.615,2.529-13.866
				c1.822-4.454,4.454-8.402,7.795-11.742c7.086-6.883,17.106-10.527,29.051-10.527h5.06c11.944,0,21.965,3.645,29.051,10.527
				C552.064,50.368,554.696,54.316,556.417,58.77z M546.193,72.636c0-14.271-10.224-23.28-26.521-23.28h-5.06
				c-16.398,0-26.521,9.009-26.521,23.28c0,14.374,10.122,23.281,26.521,23.281h5.06C535.969,95.917,546.193,87.01,546.193,72.636z"
				/>
			<linearGradient id="SVGID_50_" gradientUnits="userSpaceOnUse" x1="570.1821" y1="72.6367" x2="646.1987" y2="72.6367">
				<stop  offset="0.3295" style="stop-color:#5F3794"/>
				<stop  offset="0.6889" style="stop-color:#473392"/>
				<stop  offset="1" style="stop-color:#363091"/>
			</linearGradient>
			<path fill="url(#SVGID_50_)" d="M646.199,57.757c0,5.769-2.328,11.033-6.075,14.879c3.747,3.746,6.075,9.009,6.075,14.779v0.102
				c0,11.742-9.617,21.256-21.256,21.256h-48.385c-3.542,0-6.376-2.835-6.376-6.479c0-3.543,2.834-6.377,6.376-6.377h48.385
				c4.555,0,8.3-3.745,8.3-8.4v-0.102c0-4.656-3.745-8.401-8.3-8.401h-48.385c-3.542,0-6.376-2.834-6.376-6.377
				c0-3.643,2.834-6.478,6.376-6.478h48.385c4.555,0,8.3-3.745,8.3-8.401c0-4.555-3.745-8.401-8.3-8.401h-48.385
				c-3.542,0-6.376-2.833-6.376-6.377c0-3.542,2.834-6.478,6.376-6.478h48.385C636.582,36.5,646.199,46.117,646.199,57.757z"/>
			<linearGradient id="SVGID_51_" gradientUnits="userSpaceOnUse" x1="658.3452" y1="72.6367" x2="671.2007" y2="72.6367">
				<stop  offset="0.3295" style="stop-color:#5F3794"/>
				<stop  offset="0.6889" style="stop-color:#473392"/>
				<stop  offset="1" style="stop-color:#363091"/>
			</linearGradient>
			<path fill="url(#SVGID_51_)" d="M671.201,42.979v59.316c0,3.644-2.935,6.479-6.477,6.479c-3.544,0-6.379-2.835-6.379-6.479
				V42.979c0-3.542,2.835-6.478,6.379-6.478C668.266,36.5,671.201,39.437,671.201,42.979z"/>
		</g>
		<g>
			<linearGradient id="SVGID_52_" gradientUnits="userSpaceOnUse" x1="296.895" y1="169.0962" x2="371.5972" y2="169.0962">
				<stop  offset="0.3295" style="stop-color:#5F3794"/>
				<stop  offset="0.6889" style="stop-color:#473392"/>
				<stop  offset="1" style="stop-color:#363091"/>
			</linearGradient>
			<path fill="url(#SVGID_52_)" d="M371.597,201.959c0,4.037-3.253,7.179-7.179,7.179h-60.457c-3.924,0-7.066-3.142-7.066-7.179
				v-65.729c0-3.926,3.143-7.178,7.066-7.178c3.926,0,7.179,3.252,7.179,7.178v58.661h53.278
				C368.344,194.892,371.597,198.034,371.597,201.959z"/>
			<linearGradient id="SVGID_53_" gradientUnits="userSpaceOnUse" x1="380.6821" y1="169.0962" x2="479.1001" y2="169.0962">
				<stop  offset="0.3295" style="stop-color:#5F3794"/>
				<stop  offset="0.6889" style="stop-color:#473392"/>
				<stop  offset="1" style="stop-color:#363091"/>
			</linearGradient>
			<path fill="url(#SVGID_53_)" d="M478.493,199.043c1.57,3.589,0,7.851-3.59,9.422c-0.897,0.448-1.905,0.673-2.917,0.673
				c-2.692,0-5.271-1.57-6.505-4.15l-24.901-54.849c-1.905-4.149-6.17-6.729-10.654-6.729c-4.599,0-8.749,2.58-10.656,6.729
				l-25.013,54.849c-1.568,3.589-5.832,5.159-9.421,3.478c-3.589-1.571-5.16-5.833-3.478-9.422l24.9-54.737
				c4.263-9.196,13.46-15.253,23.667-15.253c10.094,0,19.403,6.057,23.556,15.253L478.493,199.043z M442.711,183.34
				c0,7.065-5.721,12.786-12.786,12.786c-7.067,0-12.787-5.721-12.787-12.786c0-7.066,5.72-12.787,12.787-12.787
				C436.991,170.553,442.711,176.274,442.711,183.34z"/>
			<linearGradient id="SVGID_54_" gradientUnits="userSpaceOnUse" x1="490.3813" y1="169.0962" x2="574.6177" y2="169.0962">
				<stop  offset="0.3295" style="stop-color:#5F3794"/>
				<stop  offset="0.6889" style="stop-color:#473392"/>
				<stop  offset="1" style="stop-color:#363091"/>
			</linearGradient>
			<path fill="url(#SVGID_54_)" d="M574.618,152.607c0,6.394-2.579,12.226-6.73,16.488c4.151,4.15,6.73,9.982,6.73,16.376v0.112
				c0,13.011-10.655,23.555-23.554,23.555h-53.615c-3.928,0-7.067-3.142-7.067-7.179c0-3.926,3.14-7.067,7.067-7.067h53.615
				c5.047,0,9.196-4.149,9.196-9.309v-0.112c0-5.16-4.149-9.311-9.196-9.311h-53.615c-3.928,0-7.067-3.14-7.067-7.065
				c0-4.038,3.14-7.179,7.067-7.179h53.615c5.047,0,9.196-4.149,9.196-9.31c0-5.047-4.149-9.31-9.196-9.31h-53.615
				c-3.928,0-7.067-3.14-7.067-7.066c0-3.926,3.14-7.178,7.067-7.178h53.615C563.962,129.053,574.618,139.708,574.618,152.607z"/>
			<linearGradient id="SVGID_55_" gradientUnits="userSpaceOnUse" x1="586.9546" y1="169.0962" x2="671.1899" y2="169.0962">
				<stop  offset="0.3295" style="stop-color:#5F3794"/>
				<stop  offset="0.6889" style="stop-color:#473392"/>
				<stop  offset="1" style="stop-color:#363091"/>
			</linearGradient>
			<path fill="url(#SVGID_55_)" d="M671.19,185.583c0,13.011-10.543,23.555-23.554,23.555h-48.791c-3.926,0-7.179-3.142-7.179-7.179
				c0-3.926,3.253-7.067,7.179-7.067h48.791c5.158,0,9.311-4.149,9.311-9.309s-4.152-9.31-9.311-9.31H610.51
				c-13.011,0-23.556-10.656-23.556-23.555c0-13.012,10.545-23.666,23.556-23.666h48.791c3.927,0,7.179,3.252,7.179,7.178
				c0,3.927-3.252,7.066-7.179,7.066H610.51c-5.16,0-9.311,4.263-9.311,9.422c0,5.048,4.15,9.311,9.311,9.311h37.126
				C660.647,162.03,671.19,172.573,671.19,185.583z"/>
		</g>
	</g>
</g>
</svg>
