<svg xmlns="http://www.w3.org/2000/svg" xmlns:xlink="http://www.w3.org/1999/xlink" width="358" height="8" viewBox="0 0 358 8">
  <defs>
    <clipPath id="clip-path">
      <rect id="Rectangle_3147" data-name="Rectangle 3147" width="358" height="8" transform="translate(4042 -700)" fill="#f9f9ff" stroke="rgba(3,3,3,0.1)" stroke-width="1"/>
    </clipPath>
  </defs>
  <g id="Mask_Group_1" data-name="Mask Group 1" transform="translate(-4042 700)" clip-path="url(#clip-path)">
    <path id="Path_4528" data-name="Path 4528" d="M485.08,545.862l-.023-.5a2.087,2.087,0,0,0-2.1-1.759A1.7,1.7,0,0,0,481,545.192l.023.5c-1.861-.076-2.792-.112-4.654-.182l-.022-.5a2.077,2.077,0,0,0-2.109-1.748,1.712,1.712,0,0,0-1.962,1.6l.022.5c-1.864-.066-2.8-.1-4.665-.163l-.022-.5a2.063,2.063,0,0,0-2.112-1.736,1.727,1.727,0,0,0-1.97,1.6c.008.2.012.3.022.5-1.871-.06-2.806-.088-4.678-.143l-.022-.5a2.051,2.051,0,0,0-2.113-1.726,1.74,1.74,0,0,0-1.979,1.608l.02.5c-1.874-.052-2.812-.077-4.689-.125l-.02-.5a2.038,2.038,0,0,0-2.113-1.715,1.755,1.755,0,0,0-1.989,1.614l.019.5c-1.878-.046-2.818-.066-4.7-.108l-.019-.5a2.027,2.027,0,0,0-2.116-1.706,1.767,1.767,0,0,0-1.995,1.619l.017.5c-1.883-.038-2.824-.056-4.71-.091-.006-.2-.011-.3-.017-.5a2.017,2.017,0,0,0-2.118-1.7,1.779,1.779,0,0,0-2,1.624c.006.2.011.3.017.5-1.888-.031-2.832-.047-4.721-.076l-.017-.5a2.005,2.005,0,0,0-2.118-1.688,1.793,1.793,0,0,0-2.009,1.628l.017.5c-1.891-.026-2.837-.039-4.729-.061l-.017-.5a2,2,0,0,0-2.12-1.68,1.8,1.8,0,0,0-2.015,1.633c0,.2.008.3.014.5l-4.737-.047-.016-.495a1.987,1.987,0,0,0-2.12-1.672,1.818,1.818,0,0,0-2.023,1.637l.014.5c-1.9-.016-2.846-.022-4.745-.034-.006-.2-.008-.3-.014-.495a1.977,1.977,0,0,0-2.118-1.664,1.829,1.829,0,0,0-2.031,1.641c0,.2.008.3.013.495l-4.753-.021-.012-.494a1.967,1.967,0,0,0-2.118-1.658,1.842,1.842,0,0,0-2.037,1.645l.012.495c-1.9-.005-2.856-.008-4.759-.009l-.012-.495a1.959,1.959,0,0,0-2.116-1.651,1.851,1.851,0,0,0-2.042,1.649l.011.494c-1.906,0-2.859,0-4.767,0l-.011-.494a1.949,1.949,0,0,0-2.116-1.645,1.862,1.862,0,0,0-2.048,1.651c0,.2.006.3.011.494l-4.771.012c0-.2-.006-.3-.009-.494a1.942,1.942,0,0,0-2.115-1.64,1.875,1.875,0,0,0-2.054,1.655l.009.492-4.774.022-.008-.494a1.935,1.935,0,0,0-2.115-1.634,1.884,1.884,0,0,0-2.059,1.658l.008.492c-1.911.012-2.866.017-4.777.03l-.008-.492a1.926,1.926,0,0,0-2.112-1.629,1.891,1.891,0,0,0-2.064,1.659l.006.492-4.781.038-.006-.492a2.151,2.151,0,0,0-4.18.036l.006.492-4.784.044,0-.492a2.151,2.151,0,0,0-4.18.043l0,.491-4.787.051,0-.491a2.153,2.153,0,0,0-4.181.047l0,.491-4.785.056c0-.2,0-.294,0-.491a1.9,1.9,0,0,0-2.1-1.613,1.927,1.927,0,0,0-2.084,1.666l0,.491-4.787.06,0-.491a1.887,1.887,0,0,0-2.1-1.611,1.935,1.935,0,0,0-2.087,1.667c0,.2,0,.294,0,.49l-4.787.065v-.491a1.882,1.882,0,0,0-2.093-1.608,1.939,1.939,0,0,0-2.091,1.667v.49l-4.785.068c0-.2,0-.294,0-.49a1.874,1.874,0,0,0-2.09-1.607,1.945,1.945,0,0,0-2.093,1.667l0,.49-4.785.069c0-.2,0-.293,0-.49a1.866,1.866,0,0,0-2.084-1.6,1.952,1.952,0,0,0-2.1,1.666l0,.491-4.782.07c0-.2,0-.294,0-.49a1.859,1.859,0,0,0-2.079-1.6,1.954,1.954,0,0,0-2.1,1.666l0,.49-4.781.072,0-.49a1.854,1.854,0,0,0-2.076-1.6,1.958,1.958,0,0,0-2.1,1.664c0,.2,0,.294,0,.49l-4.777.07,0-.488a1.848,1.848,0,0,0-2.07-1.6,1.964,1.964,0,0,0-2.1,1.664l0,.488-4.773.07c0-.2,0-.293.006-.49a1.844,1.844,0,0,0-2.065-1.6,1.965,1.965,0,0,0-2.105,1.662l-.006.488-4.768.069.008-.488a1.839,1.839,0,0,0-2.06-1.6,1.966,1.966,0,0,0-2.105,1.66l-.008.488-4.763.065c0-.2,0-.293.008-.488a1.833,1.833,0,0,0-2.054-1.6,1.968,1.968,0,0,0-2.107,1.658l-.008.487c-1.9.026-2.856.038-4.757.063,0-.2,0-.293.008-.488a1.827,1.827,0,0,0-2.046-1.6,1.97,1.97,0,0,0-2.109,1.655l-.009.488-4.751.057c0-.2.006-.293.011-.487a1.822,1.822,0,0,0-2.042-1.6,1.969,1.969,0,0,0-2.109,1.651l-.011.487-4.743.053c0-.2.006-.293.011-.487a1.819,1.819,0,0,0-2.035-1.6,1.971,1.971,0,0,0-2.109,1.649l-.011.487-4.735.047.011-.487a1.812,1.812,0,0,0-2.028-1.606,1.969,1.969,0,0,0-2.109,1.645c0,.194-.006.292-.012.486l-4.726.04c0-.194.008-.292.012-.486a1.81,1.81,0,0,0-2.021-1.608,1.967,1.967,0,0,0-2.107,1.641l-.014.486c-1.889.014-2.832.021-4.718.032l.014-.486a1.806,1.806,0,0,0-2.014-1.61,1.963,1.963,0,0,0-2.107,1.636l-.014.486-4.709.025.016-.486a1.8,1.8,0,0,0-2.006-1.612,1.963,1.963,0,0,0-2.107,1.63l-.016.486c-1.88.006-2.82.01-4.7.016l.017-.486a1.8,1.8,0,0,0-2-1.615,1.957,1.957,0,0,0-2.1,1.625l-.017.485c-1.875,0-2.812.005-4.686.006l.016-.486a1.8,1.8,0,0,0-1.99-1.618h-.612c5.053-158.773-.439-317.61-.7-476.4h.622a1.936,1.936,0,0,0,2.081-1.741v-.521h4.757v.521a2.114,2.114,0,0,0,4.161,0v-.521h4.759v.521a2.113,2.113,0,0,0,4.16,0v-.521h4.759v.521a2.113,2.113,0,0,0,4.16,0l0-.521h4.757v.521a2.114,2.114,0,0,0,4.161,0v-.521h4.759c0,.208,0,.313,0,.521a2.114,2.114,0,0,0,4.161,0v-.521h4.759v.521a2.113,2.113,0,0,0,4.16,0v-.521h4.759v.521a2.114,2.114,0,0,0,4.161,0v-.521h4.757v.521a2.114,2.114,0,0,0,4.161,0v-.521h4.759v.521a2.113,2.113,0,0,0,4.16,0v-.521H222.7v.521a2.114,2.114,0,0,0,4.161,0v-.521h4.757v.521a2.115,2.115,0,0,0,4.161,0v-.521h4.759v.52a2.113,2.113,0,0,0,4.16,0v-.52h4.759v.52a2.115,2.115,0,0,0,4.161,0v-.52h4.757v.52a2.114,2.114,0,0,0,4.16,0v-.52h4.76v.52a2.114,2.114,0,0,0,4.16,0v-.52h4.759v.52a2.115,2.115,0,0,0,4.161,0l0-.52h4.759v.52a2.115,2.115,0,0,0,4.161,0l0-.52h4.759l0,.52a2.114,2.114,0,0,0,4.16,0v-.52h4.759v.52a2.115,2.115,0,0,0,4.161,0l0-.52h4.759v.52a2.114,2.114,0,0,0,4.16,0v-.52h4.76l0,.52a2.113,2.113,0,0,0,4.158,0l0-.52h4.76v.518a2.114,2.114,0,0,0,4.16,0v-.518h4.759l0,.518a2.114,2.114,0,0,0,4.16,0l0-.518h4.76v.518a2.114,2.114,0,0,0,4.16,0l0-.518h4.76l0,.518a2.114,2.114,0,0,0,4.158,0c0-.207,0-.311,0-.518h4.762v.518a2.113,2.113,0,0,0,4.158,0l0-.518h4.762l0,.518a2.113,2.113,0,0,0,4.156,0v-.518h4.759c0,.207,0,.311,0,.518a2.114,2.114,0,0,0,4.16,0l0-.518h4.76l0,.518a2.114,2.114,0,0,0,4.158,0v-.518h4.759l0,.518a2.114,2.114,0,0,0,4.16,0l0-.518H410v.518a2.114,2.114,0,0,0,4.16,0v-.518h4.759l0,.52a2.114,2.114,0,0,0,4.158,0l0-.52h4.762v.52a2.114,2.114,0,0,0,4.158,0v-.52h4.759l0,.52a2.114,2.114,0,0,0,4.16,0l0-.52h4.76v.52a2.114,2.114,0,0,0,4.16,0v-.52h4.76v.52a2.114,2.114,0,0,0,4.16,0v-.52h4.759c0,.208,0,.313,0,.52a2.114,2.114,0,0,0,4.16,0l0-.52h4.76v.521a2.113,2.113,0,0,0,4.158,0v-.521h4.76v.521a2.111,2.111,0,0,0,4.157,0v-.521h4.762v.521a1.933,1.933,0,0,0,2.078,1.741h.624c-.349,158.774-7.541,317.588-.725,476.327l-.607-.027a1.682,1.682,0,0,0-1.945,1.585A14.456,14.456,0,0,1,485.08,545.862Z" transform="translate(3907.026 -765.148)" fill="#f9f9ff" stroke="rgba(3,3,3,0.1)" stroke-width="1"/>
  </g>
</svg>
