<svg id="layer1" xmlns="http://www.w3.org/2000/svg" width="47.5" height="47.5" viewBox="0 0 47.5 47.5">
  <path id="Path_1523" data-name="Path 1523" d="M0,0V11.875H11.875V0ZM14.25,0V4.75H19V2.375H16.625V0Zm7.125,0V4.75H23.75V0Zm4.75,0V2.375H28.5v4.75h2.375V4.75H33.25V2.375H30.875V0Zm4.75,7.125V9.5H28.5V7.125H26.125V9.5H23.75v2.375h2.375V14.25H28.5V11.875h4.75V7.125ZM28.5,14.25V19h2.375V14.25Zm0,4.75H23.75V11.875H21.375V14.25H19v2.375h2.375v4.75H28.5Zm0,2.375V23.75h2.375v2.375H33.25V23.75h2.375V19H38V16.625h4.75V14.25H35.625v2.375H33.25v4.75Zm14.25-4.75V19h2.375v4.75H47.5v-9.5H45.125v2.375Zm2.375,7.125H42.75V21.375H40.375V23.75h-4.75v2.375H42.75v4.75h2.375V28.5H47.5V26.125H45.125Zm0,7.125V33.25H47.5V30.875Zm0,2.375H42.75v2.375h2.375Zm-2.375,0V30.875H40.375V33.25Zm-2.375,0h-4.75v2.375H38v4.75h2.375Zm0,7.125V42.75H42.75V40.375Zm2.375,0H47.5V38H42.75ZM40.375,42.75H38V40.375H35.625V47.5H38V45.125h2.375Zm0,2.375V47.5H47.5V42.75H45.125v2.375Zm-4.75-4.75V38H33.25v2.375ZM33.25,38V35.625H30.875v-4.75H28.5V33.25H26.125V30.875h-4.75V33.25H23.75v2.375H28.5v4.75H26.125V42.75H28.5v2.375h2.375V47.5H33.25V42.75H30.875V38Zm-7.125,2.375V38H23.75v2.375Zm-2.375,0H21.375V38H19v2.375H16.625V42.75H19v2.375H16.625V42.75H14.25V47.5H26.125V45.125h-4.75V42.75H23.75Zm-7.125,0v-4.75h4.75V33.25h-4.75V30.875h-4.75V33.25H14.25v7.125Zm-4.75-9.5V28.5h4.75v2.375H19V28.5h2.375V26.125h-4.75v-4.75H14.25v4.75H11.875V23.75H9.5v2.375H7.125V28.5H9.5v2.375ZM9.5,23.75V21.375H7.125V23.75Zm0-2.375h2.375V19H14.25V16.625H9.5V14.25H7.125v2.375H2.375V14.25H0V19H9.5Zm7.125,0H19v-4.75H16.625Zm2.375,0V23.75h2.375V21.375Zm2.375,2.375v2.375H23.75V28.5h2.375v2.375H28.5v-4.75H26.125V23.75Zm9.5,7.125H33.25V33.25h2.375V30.875h4.75V28.5h-4.75V26.125H33.25V28.5H30.875Zm9.5-9.5V19H38v2.375ZM23.75,9.5V7.125H16.625V9.5H14.25v4.75h2.375V11.875H19V9.5ZM35.625,0V11.875H47.5V0ZM2.375,2.375H9.5V9.5H2.375ZM38,2.375h7.125V9.5H38ZM4.75,4.75V7.125H7.125V4.75Zm35.625,0V7.125H42.75V4.75ZM0,21.375v4.75H2.375V23.75H4.75V21.375Zm2.375,4.75v4.75H0V33.25H7.125V30.875H4.75v-4.75ZM0,35.625V47.5H11.875V35.625ZM2.375,38H9.5v7.125H2.375ZM4.75,40.375V42.75H7.125V40.375Z" fill="#222"/>
</svg>
