<svg xmlns="http://www.w3.org/2000/svg" width="17.687" height="17.562" viewBox="0 0 17.687 17.562">
  <g id="addlab" transform="translate(-4215.813 3380.323)">
    <path id="Subtraction_1" data-name="Subtraction 1" d="M11.687,17.562H.938A.938.938,0,0,1,0,16.625V6.772a.931.931,0,0,1,.362-.741L7.861.2A.94.94,0,0,1,9.014.2l7.5,5.834a.931.931,0,0,1,.362.741v4.052H15V7.229l-6.563-5.1-6.563,5.1v8.458h9.813v1.874Z" transform="translate(4215.813 -3380.323)" fill="#fff"/>
    <path id="Path_3227" data-name="Path 3227" d="M17.911,13.911h-2.8v-2.8a.6.6,0,0,0-1.2,0v2.8h-2.8a.576.576,0,0,0-.6.6.582.582,0,0,0,.6.6h2.8v2.8a.582.582,0,0,0,.6.6.6.6,0,0,0,.6-.6v-2.8h2.8a.6.6,0,1,0,0-1.2Z" transform="translate(4214.988 -3381.273)" fill="#fefefe"/>
  </g>
</svg>
