<svg xmlns="http://www.w3.org/2000/svg" xmlns:xlink="http://www.w3.org/1999/xlink" width="57" height="38" viewBox="0 0 57 38">
  <defs>
    <filter id="Ellipse_100" x="19" y="0" width="38" height="38" filterUnits="userSpaceOnUse">
      <feOffset dy="3" input="SourceAlpha"/>
      <feGaussianBlur stdDeviation="3" result="blur"/>
      <feFlood flood-opacity="0.161"/>
      <feComposite operator="in" in2="blur"/>
      <feComposite in="SourceGraphic"/>
    </filter>
  </defs>
  <g id="darkmode_on_off" transform="translate(-163 -577)">
    <g id="Rectangle_6678" data-name="Rectangle 6678" transform="translate(163 580)" fill="#14151a" stroke="#8d94b0" stroke-width="1">
      <rect width="53" height="26" rx="13" stroke="none"/>
      <rect x="0.5" y="0.5" width="52" height="25" rx="12.5" fill="none"/>
    </g>
    <g transform="matrix(1, 0, 0, 1, 163, 577)" filter="url(#Ellipse_100)">
      <circle id="Ellipse_100-2" data-name="Ellipse 100" cx="10" cy="10" r="10" transform="translate(28 6)" fill="#464856"/>
    </g>
    <path id="dark" d="M7.5,3.2a4.8,4.8,0,1,1,0,9.6,4.059,4.059,0,0,1-.606-.042,7.171,7.171,0,0,0,0-9.516A4.059,4.059,0,0,1,7.5,3.2M7.5,2a5.984,5.984,0,0,0-3,.81,5.989,5.989,0,0,1,0,10.38A6,6,0,1,0,7.5,2Z" transform="translate(192.5 585)" fill="#fff"/>
    <path id="IcSharpLightMode" d="M7,4.274A2.729,2.729,0,1,0,9.732,7,2.73,2.73,0,0,0,7,4.274ZM6.457,1V3.183H7.549V1Zm0,9.823v2.183H7.549V10.823Zm6.549-4.366H10.823V7.549h2.183Zm-9.823,0H1V7.549H3.183Zm6.134,3.635,1.348,1.348.769-.769L10.086,9.322ZM2.566,3.336,3.914,4.684l.769-.769L3.336,2.566ZM3.914,9.317,2.566,10.665l.769.769,1.348-1.348ZM10.67,2.566,9.322,3.914l.769.769L11.44,3.336Z" transform="translate(170 586)" fill="#fff"/>
  </g>
</svg>
