<svg xmlns="http://www.w3.org/2000/svg" width="17.293" height="17.294" viewBox="0 0 17.293 17.294">
  <g id="diagnosis_icon" transform="translate(-21 -360.263)">
    <g id="search" transform="translate(21 360.263)">
      <path id="Path_3016" data-name="Path 3016" d="M9.4,16.791a7.35,7.35,0,0,0,4.526-1.559l4.065,4.063,1.307-1.307-4.064-4.064A7.386,7.386,0,1,0,9.4,16.791Zm0-12.942A5.546,5.546,0,1,1,3.849,9.4,5.552,5.552,0,0,1,9.4,3.849Z" transform="translate(-2 -2)" fill="#fff"/>
    </g>
    <path id="Path_3013" data-name="Path 3013" d="M.676,0A.676.676,0,0,0,0,.675V4.914a.676.676,0,0,0,1.351,0V.675A.676.676,0,0,0,.676,0Z" transform="translate(27.5 364.081)" fill="#fff"/>
    <path id="Path_3014" data-name="Path 3014" d="M.2.2a.675.675,0,1,0,.955,0A.676.676,0,0,0,.2.2Z" transform="translate(27.5 370.531)" fill="#fff"/>
  </g>
</svg>
