<svg xmlns="http://www.w3.org/2000/svg" width="17.11" height="17.11" viewBox="0 0 17.11 17.11">
  <g id="help_sidemenu" transform="translate(-2 -2)">
    <path id="Path_2837" data-name="Path 2837" d="M11.432,6A3.37,3.37,0,0,0,8.066,9.366H9.777a1.655,1.655,0,1,1,3.309,0c0,.512-.411.883-1.04,1.391q-.308.241-.591.512a2.787,2.787,0,0,0-.879,1.86V13.7h1.711v-.542a1.175,1.175,0,0,1,.377-.678,5.926,5.926,0,0,1,.458-.392A3.568,3.568,0,0,0,14.8,9.366,3.368,3.368,0,0,0,11.432,6Zm-.855,8.555h1.711v1.711H10.576Z" transform="translate(-0.877 -0.578)" fill="#fff"/>
    <path id="Path_2838" data-name="Path 2838" d="M10.555,2a8.555,8.555,0,1,0,8.555,8.555A8.565,8.565,0,0,0,10.555,2Zm0,15.4A6.844,6.844,0,1,1,17.4,10.555,6.852,6.852,0,0,1,10.555,17.4Z" fill="#fff"/>
  </g>
</svg>
