<svg xmlns="http://www.w3.org/2000/svg" width="17.883" height="16.094" viewBox="0 0 17.883 16.094">
  <g id="history_sidemenu" transform="translate(-2 -3)">
    <path id="Path_2833" data-name="Path 2833" d="M12,8v4.471h4.471V10.682H13.788V8Z" transform="translate(-1.059 -0.529)" fill="#fff"/>
    <path id="Path_2834" data-name="Path 2834" d="M19.25,7.915a8.055,8.055,0,0,0-5.792-4.751,8.128,8.128,0,0,0-3.242,0,8.042,8.042,0,0,0-6.427,7.884v.022H2l2.682,3.554L7.365,11.07H5.577v-.022a6.221,6.221,0,0,1,1.068-3.5A6.259,6.259,0,0,1,17.968,9.783a6.364,6.364,0,0,1,0,2.525,6.268,6.268,0,0,1-1.706,3.164,6.311,6.311,0,0,1-1.989,1.342,6.241,6.241,0,0,1-1.174.365,6.364,6.364,0,0,1-2.524,0,6.221,6.221,0,0,1-2.236-.942,6.318,6.318,0,0,1-.927-.764L6.146,16.738a8.048,8.048,0,0,0,13.1-8.822Z" fill="#fff"/>
  </g>
</svg>
