<svg id="home_sidemenu" xmlns="http://www.w3.org/2000/svg" width="22.5" height="22.5" viewBox="0 0 22.5 22.5">
  <path id="Path_496" data-name="Path 496" d="M0,0H22.5V22.5H0Z" fill="none"/>
  <path id="Path_497" data-name="Path 497" d="M19.875,18.892a.938.938,0,0,1-.937.938h-15A.938.938,0,0,1,3,18.892V9.039A.937.937,0,0,1,3.362,8.3l7.5-5.833a.938.938,0,0,1,1.151,0l7.5,5.833a.937.937,0,0,1,.362.741v9.853ZM18,17.954V9.5l-6.562-5.1L4.875,9.5v8.458Z" transform="translate(-0.187 -0.142)" fill="#fff"/>
</svg>
