<svg xmlns="http://www.w3.org/2000/svg" width="41.87" height="39.271" viewBox="0 0 41.87 39.271">
  <g id="inprogress" transform="translate(-159.064 -117)">
    <g id="Group_1128" data-name="Group 1128" transform="translate(-7081.005 -3023.438)">
      <path id="Path_3005" data-name="Path 3005" d="M101.25,44.8a18.733,18.733,0,0,0-7.462-4.591.574.574,0,0,0-.752.545v1.437a.571.571,0,0,0,.378.538,16.407,16.407,0,0,1,9.77,9.539.571.571,0,0,0,.533.365h1.45a.574.574,0,0,0,.541-.763A18.742,18.742,0,0,0,101.25,44.8Zm2.2,18.412A16.4,16.4,0,0,1,93.415,73.486a.572.572,0,0,0-.38.539v1.437a.574.574,0,0,0,.752.545,18.9,18.9,0,0,0,12.177-12.448.574.574,0,0,0-.549-.739H103.99a.572.572,0,0,0-.543.393ZM72.684,65.2a7.423,7.423,0,0,1-1.256.317.572.572,0,0,0-.426.813,18.942,18.942,0,0,0,11.1,9.682.574.574,0,0,0,.752-.545V74.025a.572.572,0,0,0-.38-.539,16.411,16.411,0,0,1-9.087-8.006A.573.573,0,0,0,72.684,65.2Z" transform="translate(7174.927 3102.243)" fill="#8d94b0"/>
      <path id="Path_3006" data-name="Path 3006" d="M258.319,26.775H256.13a.944.944,0,0,1-.944-.944V23.643a.944.944,0,0,1,.944-.944h2.189a.944.944,0,0,1,.944.944v2.189A.944.944,0,0,1,258.319,26.775Z" transform="translate(7005.752 3118.296)" fill="#8d94b0"/>
      <path id="Path_3008" data-name="Path 3008" d="M258.319,450.335H256.13a.944.944,0,0,1-.944-.944V447.2a.944.944,0,0,1,.944-.944h2.189a.944.944,0,0,1,.944.944v2.189A.944.944,0,0,1,258.319,450.335Z" transform="translate(7005.752 2729.374)" fill="#8d94b0"/>
      <path id="Path_3009" data-name="Path 3009" d="M465.287,232.174H463.1a.944.944,0,0,1-.944-.944v-2.189a.944.944,0,0,1,.944-.944h2.189a.944.944,0,0,1,.944.944v2.189A.944.944,0,0,1,465.287,232.174Z" transform="translate(6815.709 2929.694)" fill="#8d94b0"/>
      <ellipse id="Ellipse_103" data-name="Ellipse 103" cx="5.088" cy="5.088" rx="5.088" ry="5.088" transform="translate(7240.069 3155.264)" fill="#8d94b0"/>
      <g id="Group_1127" data-name="Group 1127" transform="translate(7242.894 3158.612)">
        <path id="Path_2994" data-name="Path 2994" d="M36.213,241.6a.632.632,0,0,1-.447-.185l-1.045-1.045a.632.632,0,0,1,.894-.894l.6.6,1.771-1.771a.632.632,0,0,1,.894.894l-2.217,2.217A.632.632,0,0,1,36.213,241.6Z" transform="translate(-34.535 -238.117)" fill="#fff"/>
      </g>
      <path id="Path_3007" data-name="Path 3007" d="M142.716,18.888a.636.636,0,0,0-.042-.847l-1.963-1.963a.632.632,0,0,0-.894.894l.884.884H135.9a.632.632,0,0,0,0,1.264H140.7l-.884.884a.632.632,0,0,0,.894.894l1.963-1.963Z" transform="translate(7115.867 3124.545)" fill="#8d94b0"/>
    </g>
    <path id="DNA" d="M10.8,0a.94.94,0,0,0-.637.294c-1.492,2.062-.793,3.611.021,6.254.884,2.87.106,4.841-3.107,3.915l.448,1.443c3.892.585,4.671-2.237,4.147-4.676C10.953,3.9,9.932,3.082,11.353.941A.686.686,0,0,0,10.8,0Zm1.3,1.463c-.259.153-.35.363-.359.829A20.583,20.583,0,0,1,14.368,5.28a1.5,1.5,0,0,1-.938.253,19.926,19.926,0,0,0-1.867-2.139c.053.572.209,1,.257,1.493A3.746,3.746,0,0,1,12.9,6.624a4.453,4.453,0,0,0,3.181-1.18c.4-.345-.16-1.279-.876-.637a25.1,25.1,0,0,0-3.112-3.344Zm-4.34,2.9A3.33,3.33,0,0,0,4.3,7.974c.162,1.8.975,2.979,1.1,4.432L4.517,11.4a1.529,1.529,0,0,0-1.029.122l1.876,1.986a5.209,5.209,0,0,1-.265.972c-.734-.706-1.6-1.764-2.547-2.789a1.754,1.754,0,0,0-.855.441L4.69,15.358c-.776.858.561,1.441,1.168.751,2.09-2.435.48-5.318-.2-8.089L7.177,9.677A1.835,1.835,0,0,0,8.7,9.8L5.774,6.759c.151-.337.31-.421.675-.6L9.3,9.13A1.245,1.245,0,0,0,9.41,7.742L7.554,5.687a3.644,3.644,0,0,1,1.57.287l-.45-1.5a4.378,4.378,0,0,0-.922-.112ZM3.166,9.619A4.007,4.007,0,0,0,.224,10.807a.67.67,0,0,0,.856,1.028,3.568,3.568,0,0,1,3-1.089L3.831,9.665a5.972,5.972,0,0,0-.666-.046Z" transform="translate(174.072 128.181)" fill="#8d94b0"/>
  </g>
</svg>
