<svg xmlns="http://www.w3.org/2000/svg" width="17" height="17.001" viewBox="0 0 17 17.001">
  <path id="lab_assistant_icon" d="M8,0C4.612,0,2.357,3.3,5.512,9.119c1.064,1.963-1.15,2.428-3.394,2.946C.069,12.538-.007,13.555,0,15.335L0,16H16l0-.646c.008-1.792-.062-2.816-2.118-3.29-2.292-.529-4.426-.993-3.394-2.946C13.634,3.178,11.322,0,8,0M8,.667A3.122,3.122,0,0,1,10.817,2.1c.9,1.5.577,3.883-.918,6.707a2.157,2.157,0,0,0-.189,1.955c.625,1.366,3.172,1.755,4.022,1.952,1.535.356,1.608.875,1.6,2.62H.667c-.007-1.743.06-2.264,1.6-2.62.771-.177,3.426-.613,4.033-1.96A2.142,2.142,0,0,0,6.1,8.8C4.61,6.058,4.268,3.625,5.161,2.126A3.136,3.136,0,0,1,8,.667" transform="translate(0.5 0.5)" fill="#fff" stroke="#fff" stroke-width="1" fill-rule="evenodd"/>
</svg>
