<svg id="myaccount_sidemenu" xmlns="http://www.w3.org/2000/svg" width="22.5" height="22.5" viewBox="0 0 22.5 22.5">
  <path id="Path_500" data-name="Path 500" d="M0,0H22.5V22.5H0Z" fill="none"/>
  <path id="Path_501" data-name="Path 501" d="M11.462,16.063a10.012,10.012,0,0,1,8.069,3.68l-1.727.817a8.313,8.313,0,0,0-6.342-2.621A8.313,8.313,0,0,0,5.12,20.559l-1.726-.818A10.01,10.01,0,0,1,11.462,16.063ZM11.462,2A4.688,4.688,0,0,1,16.15,6.688V9.5a4.687,4.687,0,0,1-4.484,4.683l-.2,0A4.688,4.688,0,0,1,6.775,9.5V6.688A4.687,4.687,0,0,1,11.258,2Zm0,1.875A2.813,2.813,0,0,0,8.654,6.523l0,.165V9.5a2.812,2.812,0,0,0,5.62.165l0-.165V6.688a2.812,2.812,0,0,0-2.812-2.812Z" transform="translate(-0.212 -0.125)" fill="#fff"/>
</svg>
