<svg id="settings_sidemenu" xmlns="http://www.w3.org/2000/svg" width="22.5" height="22.5" viewBox="0 0 22.5 22.5">
  <path id="Path_498" data-name="Path 498" d="M0,0H22.5V22.5H0Z" fill="none"/>
  <path id="Path_499" data-name="Path 499" d="M8.212,3.819l2.444-2.444a.937.937,0,0,1,1.326,0l2.444,2.444h3.456a.938.938,0,0,1,.938.938V8.212l2.444,2.444a.937.937,0,0,1,0,1.326l-2.444,2.444v3.456a.938.938,0,0,1-.937.938H14.426l-2.444,2.444a.937.937,0,0,1-1.326,0L8.212,18.819H4.756a.938.938,0,0,1-.937-.937V14.426L1.375,11.982a.937.937,0,0,1,0-1.326L3.819,8.212V4.756a.938.938,0,0,1,.938-.937ZM5.694,5.694v3.3l-2.33,2.33,2.33,2.33v3.3h3.3l2.33,2.33,2.33-2.33h3.3v-3.3l2.33-2.33-2.33-2.33v-3.3h-3.3l-2.33-2.33-2.33,2.33Zm5.625,9.375a3.75,3.75,0,1,1,3.75-3.75A3.75,3.75,0,0,1,11.319,15.069Zm0-1.875a1.875,1.875,0,1,0-1.875-1.875A1.875,1.875,0,0,0,11.319,13.194Z" transform="translate(-0.069 -0.069)" fill="#fff"/>
</svg>
