<svg xmlns="http://www.w3.org/2000/svg" width="17.882" height="17.882" viewBox="0 0 17.882 17.882">
  <path id="uv_sidemenu" d="M9.025,19.882H6.471a1.279,1.279,0,0,1-1.277-1.277V13.5H6.471v5.109H9.025V13.5H10.3v5.109A1.279,1.279,0,0,1,9.025,19.882ZM16.689,13.5H15.572l-1.437,5.768L12.724,13.5H11.58l1.6,6.387h1.916ZM10.3,2H11.58V5.193H10.3Zm4.271,4.407,2.239-2.239.9.9L15.477,7.31Zm2.115,3.9h3.193V11.58H16.689ZM2,10.3H5.193V11.58H2ZM4.168,5.071l.9-.9L7.31,6.407l-.9.9Zm10.6,6.509H13.5v-.639a2.555,2.555,0,1,0-5.109,0v.639H7.109v-.639a3.832,3.832,0,1,1,7.664,0Z" transform="translate(-2 -2)" fill="#fff"/>
</svg>
